<mxfile host="drawio-plugin" modified="2022-05-18T03:20:40.793Z" agent="5.0 (Macintosh; Intel Mac OS X 10_15_7) AppleWebKit/537.36 (KHTML, like Gecko) Chrome/97.0.4692.45 Safari/537.36" etag="md0uFMAGDErqPO4ToFyF" version="15.5.4" type="embed"><diagram id="ZHebWxVkOSQv9Obv8YN-" name="Page-1"><mxGraphModel dx="2183" dy="1921" grid="1" gridSize="10" guides="1" tooltips="1" connect="1" arrows="1" fold="1" page="1" pageScale="1" pageWidth="827" pageHeight="1169" math="0" shadow="0"><root><mxCell id="0"/><mxCell id="1" parent="0"/><mxCell id="6EP8Lx5cC8tgFNHVOdCp-191" style="edgeStyle=orthogonalEdgeStyle;rounded=0;orthogonalLoop=1;jettySize=auto;html=1;fontSize=21;" parent="1" source="6EP8Lx5cC8tgFNHVOdCp-188" target="118" edge="1"><mxGeometry relative="1" as="geometry"/></mxCell><mxCell id="6EP8Lx5cC8tgFNHVOdCp-188" value="" style="rounded=0;whiteSpace=wrap;html=1;fillColor=none;dashed=1;strokeColor=#3399FF;" parent="1" vertex="1"><mxGeometry x="-670" y="-460" width="630" height="850" as="geometry"/></mxCell><mxCell id="6EP8Lx5cC8tgFNHVOdCp-193" style="edgeStyle=orthogonalEdgeStyle;rounded=0;orthogonalLoop=1;jettySize=auto;html=1;fontSize=21;" parent="1" source="6EP8Lx5cC8tgFNHVOdCp-119" target="118" edge="1"><mxGeometry relative="1" as="geometry"><Array as="points"><mxPoint x="-10" y="830"/><mxPoint x="-10" y="430"/></Array></mxGeometry></mxCell><mxCell id="6EP8Lx5cC8tgFNHVOdCp-119" value="" style="rounded=0;whiteSpace=wrap;html=1;fillColor=none;dashed=1;strokeColor=#66B2FF;" parent="1" vertex="1"><mxGeometry x="-680" y="570" width="640" height="520" as="geometry"/></mxCell><mxCell id="118" value="" style="rounded=0;whiteSpace=wrap;html=1;dashed=1;strokeWidth=1;fillColor=none;strokeColor=#66B2FF;" parent="1" vertex="1"><mxGeometry x="-10" y="-450" width="730" height="1600" as="geometry"/></mxCell><mxCell id="F4zQujOyoh7R0P-sWK7r-9" value="order" style="shape=table;startSize=30;container=1;collapsible=1;childLayout=tableLayout;fixedRows=1;rowLines=0;fontStyle=1;align=center;resizeLast=1;" parent="1" vertex="1"><mxGeometry x="150" y="250" width="170" height="540" as="geometry"/></mxCell><mxCell id="F4zQujOyoh7R0P-sWK7r-10" value="" style="shape=tableRow;horizontal=0;startSize=0;swimlaneHead=0;swimlaneBody=0;fillColor=none;collapsible=0;dropTarget=0;points=[[0,0.5],[1,0.5]];portConstraint=eastwest;top=0;left=0;right=0;bottom=1;" parent="F4zQujOyoh7R0P-sWK7r-9" vertex="1"><mxGeometry y="30" width="170" height="30" as="geometry"/></mxCell><mxCell id="F4zQujOyoh7R0P-sWK7r-11" value="PK" style="shape=partialRectangle;connectable=0;fillColor=none;top=0;left=0;bottom=0;right=0;fontStyle=1;overflow=hidden;" parent="F4zQujOyoh7R0P-sWK7r-10" vertex="1"><mxGeometry width="30" height="30" as="geometry"><mxRectangle width="30" height="30" as="alternateBounds"/></mxGeometry></mxCell><mxCell id="F4zQujOyoh7R0P-sWK7r-12" value="id" style="shape=partialRectangle;connectable=0;fillColor=none;top=0;left=0;bottom=0;right=0;align=left;spacingLeft=6;fontStyle=5;overflow=hidden;" parent="F4zQujOyoh7R0P-sWK7r-10" vertex="1"><mxGeometry x="30" width="140" height="30" as="geometry"><mxRectangle width="140" height="30" as="alternateBounds"/></mxGeometry></mxCell><mxCell id="F4zQujOyoh7R0P-sWK7r-13" value="" style="shape=tableRow;horizontal=0;startSize=0;swimlaneHead=0;swimlaneBody=0;fillColor=none;collapsible=0;dropTarget=0;points=[[0,0.5],[1,0.5]];portConstraint=eastwest;top=0;left=0;right=0;bottom=0;" parent="F4zQujOyoh7R0P-sWK7r-9" vertex="1"><mxGeometry y="60" width="170" height="30" as="geometry"/></mxCell><mxCell id="F4zQujOyoh7R0P-sWK7r-14" value="K" style="shape=partialRectangle;connectable=0;fillColor=none;top=0;left=0;bottom=0;right=0;editable=1;overflow=hidden;" parent="F4zQujOyoh7R0P-sWK7r-13" vertex="1"><mxGeometry width="30" height="30" as="geometry"><mxRectangle width="30" height="30" as="alternateBounds"/></mxGeometry></mxCell><mxCell id="F4zQujOyoh7R0P-sWK7r-15" value="space_id varchar(50)" style="shape=partialRectangle;connectable=0;fillColor=none;top=0;left=0;bottom=0;right=0;align=left;spacingLeft=6;overflow=hidden;" parent="F4zQujOyoh7R0P-sWK7r-13" vertex="1"><mxGeometry x="30" width="140" height="30" as="geometry"><mxRectangle width="140" height="30" as="alternateBounds"/></mxGeometry></mxCell><mxCell id="F4zQujOyoh7R0P-sWK7r-16" value="" style="shape=tableRow;horizontal=0;startSize=0;swimlaneHead=0;swimlaneBody=0;fillColor=none;collapsible=0;dropTarget=0;points=[[0,0.5],[1,0.5]];portConstraint=eastwest;top=0;left=0;right=0;bottom=0;" parent="F4zQujOyoh7R0P-sWK7r-9" vertex="1"><mxGeometry y="90" width="170" height="30" as="geometry"/></mxCell><mxCell id="F4zQujOyoh7R0P-sWK7r-17" value="UK" style="shape=partialRectangle;connectable=0;fillColor=none;top=0;left=0;bottom=0;right=0;editable=1;overflow=hidden;" parent="F4zQujOyoh7R0P-sWK7r-16" vertex="1"><mxGeometry width="30" height="30" as="geometry"><mxRectangle width="30" height="30" as="alternateBounds"/></mxGeometry></mxCell><mxCell id="F4zQujOyoh7R0P-sWK7r-18" value="order_id" style="shape=partialRectangle;connectable=0;fillColor=none;top=0;left=0;bottom=0;right=0;align=left;spacingLeft=6;overflow=hidden;" parent="F4zQujOyoh7R0P-sWK7r-16" vertex="1"><mxGeometry x="30" width="140" height="30" as="geometry"><mxRectangle width="140" height="30" as="alternateBounds"/></mxGeometry></mxCell><mxCell id="F4zQujOyoh7R0P-sWK7r-203" value="" style="shape=tableRow;horizontal=0;startSize=0;swimlaneHead=0;swimlaneBody=0;fillColor=none;collapsible=0;dropTarget=0;points=[[0,0.5],[1,0.5]];portConstraint=eastwest;top=0;left=0;right=0;bottom=0;" parent="F4zQujOyoh7R0P-sWK7r-9" vertex="1"><mxGeometry y="120" width="170" height="30" as="geometry"/></mxCell><mxCell id="F4zQujOyoh7R0P-sWK7r-204" value="" style="shape=partialRectangle;connectable=0;fillColor=none;top=0;left=0;bottom=0;right=0;editable=1;overflow=hidden;" parent="F4zQujOyoh7R0P-sWK7r-203" vertex="1"><mxGeometry width="30" height="30" as="geometry"><mxRectangle width="30" height="30" as="alternateBounds"/></mxGeometry></mxCell><mxCell id="F4zQujOyoh7R0P-sWK7r-205" value="order_type" style="shape=partialRectangle;connectable=0;fillColor=none;top=0;left=0;bottom=0;right=0;align=left;spacingLeft=6;overflow=hidden;" parent="F4zQujOyoh7R0P-sWK7r-203" vertex="1"><mxGeometry x="30" width="140" height="30" as="geometry"><mxRectangle width="140" height="30" as="alternateBounds"/></mxGeometry></mxCell><mxCell id="F4zQujOyoh7R0P-sWK7r-19" value="" style="shape=tableRow;horizontal=0;startSize=0;swimlaneHead=0;swimlaneBody=0;fillColor=none;collapsible=0;dropTarget=0;points=[[0,0.5],[1,0.5]];portConstraint=eastwest;top=0;left=0;right=0;bottom=0;" parent="F4zQujOyoh7R0P-sWK7r-9" vertex="1"><mxGeometry y="150" width="170" height="30" as="geometry"/></mxCell><mxCell id="F4zQujOyoh7R0P-sWK7r-20" value="" style="shape=partialRectangle;connectable=0;fillColor=none;top=0;left=0;bottom=0;right=0;editable=1;overflow=hidden;" parent="F4zQujOyoh7R0P-sWK7r-19" vertex="1"><mxGeometry width="30" height="30" as="geometry"><mxRectangle width="30" height="30" as="alternateBounds"/></mxGeometry></mxCell><mxCell id="F4zQujOyoh7R0P-sWK7r-21" value="order_channel" style="shape=partialRectangle;connectable=0;fillColor=none;top=0;left=0;bottom=0;right=0;align=left;spacingLeft=6;overflow=hidden;" parent="F4zQujOyoh7R0P-sWK7r-19" vertex="1"><mxGeometry x="30" width="140" height="30" as="geometry"><mxRectangle width="140" height="30" as="alternateBounds"/></mxGeometry></mxCell><mxCell id="F4zQujOyoh7R0P-sWK7r-23" value="" style="shape=tableRow;horizontal=0;startSize=0;swimlaneHead=0;swimlaneBody=0;fillColor=none;collapsible=0;dropTarget=0;points=[[0,0.5],[1,0.5]];portConstraint=eastwest;top=0;left=0;right=0;bottom=0;" parent="F4zQujOyoh7R0P-sWK7r-9" vertex="1"><mxGeometry y="180" width="170" height="30" as="geometry"/></mxCell><mxCell id="F4zQujOyoh7R0P-sWK7r-24" value="" style="shape=partialRectangle;connectable=0;fillColor=none;top=0;left=0;bottom=0;right=0;editable=1;overflow=hidden;" parent="F4zQujOyoh7R0P-sWK7r-23" vertex="1"><mxGeometry width="30" height="30" as="geometry"><mxRectangle width="30" height="30" as="alternateBounds"/></mxGeometry></mxCell><mxCell id="F4zQujOyoh7R0P-sWK7r-25" value="channel_order_id" style="shape=partialRectangle;connectable=0;fillColor=none;top=0;left=0;bottom=0;right=0;align=left;spacingLeft=6;overflow=hidden;" parent="F4zQujOyoh7R0P-sWK7r-23" vertex="1"><mxGeometry x="30" width="140" height="30" as="geometry"><mxRectangle width="140" height="30" as="alternateBounds"/></mxGeometry></mxCell><mxCell id="F4zQujOyoh7R0P-sWK7r-26" value="" style="shape=tableRow;horizontal=0;startSize=0;swimlaneHead=0;swimlaneBody=0;fillColor=none;collapsible=0;dropTarget=0;points=[[0,0.5],[1,0.5]];portConstraint=eastwest;top=0;left=0;right=0;bottom=0;" parent="F4zQujOyoh7R0P-sWK7r-9" vertex="1"><mxGeometry y="210" width="170" height="30" as="geometry"/></mxCell><mxCell id="F4zQujOyoh7R0P-sWK7r-27" value="" style="shape=partialRectangle;connectable=0;fillColor=none;top=0;left=0;bottom=0;right=0;editable=1;overflow=hidden;" parent="F4zQujOyoh7R0P-sWK7r-26" vertex="1"><mxGeometry width="30" height="30" as="geometry"><mxRectangle width="30" height="30" as="alternateBounds"/></mxGeometry></mxCell><mxCell id="F4zQujOyoh7R0P-sWK7r-28" value="currency" style="shape=partialRectangle;connectable=0;fillColor=none;top=0;left=0;bottom=0;right=0;align=left;spacingLeft=6;overflow=hidden;" parent="F4zQujOyoh7R0P-sWK7r-26" vertex="1"><mxGeometry x="30" width="140" height="30" as="geometry"><mxRectangle width="140" height="30" as="alternateBounds"/></mxGeometry></mxCell><mxCell id="F4zQujOyoh7R0P-sWK7r-29" value="" style="shape=tableRow;horizontal=0;startSize=0;swimlaneHead=0;swimlaneBody=0;fillColor=none;collapsible=0;dropTarget=0;points=[[0,0.5],[1,0.5]];portConstraint=eastwest;top=0;left=0;right=0;bottom=0;" parent="F4zQujOyoh7R0P-sWK7r-9" vertex="1"><mxGeometry y="240" width="170" height="30" as="geometry"/></mxCell><mxCell id="F4zQujOyoh7R0P-sWK7r-30" value="" style="shape=partialRectangle;connectable=0;fillColor=none;top=0;left=0;bottom=0;right=0;editable=1;overflow=hidden;" parent="F4zQujOyoh7R0P-sWK7r-29" vertex="1"><mxGeometry width="30" height="30" as="geometry"><mxRectangle width="30" height="30" as="alternateBounds"/></mxGeometry></mxCell><mxCell id="F4zQujOyoh7R0P-sWK7r-31" value="amount" style="shape=partialRectangle;connectable=0;fillColor=none;top=0;left=0;bottom=0;right=0;align=left;spacingLeft=6;overflow=hidden;" parent="F4zQujOyoh7R0P-sWK7r-29" vertex="1"><mxGeometry x="30" width="140" height="30" as="geometry"><mxRectangle width="140" height="30" as="alternateBounds"/></mxGeometry></mxCell><mxCell id="F4zQujOyoh7R0P-sWK7r-32" value="" style="shape=tableRow;horizontal=0;startSize=0;swimlaneHead=0;swimlaneBody=0;fillColor=none;collapsible=0;dropTarget=0;points=[[0,0.5],[1,0.5]];portConstraint=eastwest;top=0;left=0;right=0;bottom=0;" parent="F4zQujOyoh7R0P-sWK7r-9" vertex="1"><mxGeometry y="270" width="170" height="30" as="geometry"/></mxCell><mxCell id="F4zQujOyoh7R0P-sWK7r-33" value="" style="shape=partialRectangle;connectable=0;fillColor=none;top=0;left=0;bottom=0;right=0;editable=1;overflow=hidden;" parent="F4zQujOyoh7R0P-sWK7r-32" vertex="1"><mxGeometry width="30" height="30" as="geometry"><mxRectangle width="30" height="30" as="alternateBounds"/></mxGeometry></mxCell><mxCell id="F4zQujOyoh7R0P-sWK7r-34" value="state" style="shape=partialRectangle;connectable=0;fillColor=none;top=0;left=0;bottom=0;right=0;align=left;spacingLeft=6;overflow=hidden;" parent="F4zQujOyoh7R0P-sWK7r-32" vertex="1"><mxGeometry x="30" width="140" height="30" as="geometry"><mxRectangle width="140" height="30" as="alternateBounds"/></mxGeometry></mxCell><mxCell id="F4zQujOyoh7R0P-sWK7r-35" value="" style="shape=tableRow;horizontal=0;startSize=0;swimlaneHead=0;swimlaneBody=0;fillColor=none;collapsible=0;dropTarget=0;points=[[0,0.5],[1,0.5]];portConstraint=eastwest;top=0;left=0;right=0;bottom=0;" parent="F4zQujOyoh7R0P-sWK7r-9" vertex="1"><mxGeometry y="300" width="170" height="30" as="geometry"/></mxCell><mxCell id="F4zQujOyoh7R0P-sWK7r-36" value="" style="shape=partialRectangle;connectable=0;fillColor=none;top=0;left=0;bottom=0;right=0;editable=1;overflow=hidden;" parent="F4zQujOyoh7R0P-sWK7r-35" vertex="1"><mxGeometry width="30" height="30" as="geometry"><mxRectangle width="30" height="30" as="alternateBounds"/></mxGeometry></mxCell><mxCell id="F4zQujOyoh7R0P-sWK7r-37" value="created_time" style="shape=partialRectangle;connectable=0;fillColor=none;top=0;left=0;bottom=0;right=0;align=left;spacingLeft=6;overflow=hidden;" parent="F4zQujOyoh7R0P-sWK7r-35" vertex="1"><mxGeometry x="30" width="140" height="30" as="geometry"><mxRectangle width="140" height="30" as="alternateBounds"/></mxGeometry></mxCell><mxCell id="F4zQujOyoh7R0P-sWK7r-109" value="" style="shape=tableRow;horizontal=0;startSize=0;swimlaneHead=0;swimlaneBody=0;fillColor=none;collapsible=0;dropTarget=0;points=[[0,0.5],[1,0.5]];portConstraint=eastwest;top=0;left=0;right=0;bottom=0;" parent="F4zQujOyoh7R0P-sWK7r-9" vertex="1"><mxGeometry y="330" width="170" height="30" as="geometry"/></mxCell><mxCell id="F4zQujOyoh7R0P-sWK7r-110" value="" style="shape=partialRectangle;connectable=0;fillColor=none;top=0;left=0;bottom=0;right=0;editable=1;overflow=hidden;" parent="F4zQujOyoh7R0P-sWK7r-109" vertex="1"><mxGeometry width="30" height="30" as="geometry"><mxRectangle width="30" height="30" as="alternateBounds"/></mxGeometry></mxCell><mxCell id="F4zQujOyoh7R0P-sWK7r-111" value="desc" style="shape=partialRectangle;connectable=0;fillColor=none;top=0;left=0;bottom=0;right=0;align=left;spacingLeft=6;overflow=hidden;" parent="F4zQujOyoh7R0P-sWK7r-109" vertex="1"><mxGeometry x="30" width="140" height="30" as="geometry"><mxRectangle width="140" height="30" as="alternateBounds"/></mxGeometry></mxCell><mxCell id="F4zQujOyoh7R0P-sWK7r-258" value="" style="shape=tableRow;horizontal=0;startSize=0;swimlaneHead=0;swimlaneBody=0;fillColor=none;collapsible=0;dropTarget=0;points=[[0,0.5],[1,0.5]];portConstraint=eastwest;top=0;left=0;right=0;bottom=0;" parent="F4zQujOyoh7R0P-sWK7r-9" vertex="1"><mxGeometry y="360" width="170" height="30" as="geometry"/></mxCell><mxCell id="F4zQujOyoh7R0P-sWK7r-259" value="" style="shape=partialRectangle;connectable=0;fillColor=none;top=0;left=0;bottom=0;right=0;editable=1;overflow=hidden;" parent="F4zQujOyoh7R0P-sWK7r-258" vertex="1"><mxGeometry width="30" height="30" as="geometry"><mxRectangle width="30" height="30" as="alternateBounds"/></mxGeometry></mxCell><mxCell id="F4zQujOyoh7R0P-sWK7r-260" value="version" style="shape=partialRectangle;connectable=0;fillColor=none;top=0;left=0;bottom=0;right=0;align=left;spacingLeft=6;overflow=hidden;" parent="F4zQujOyoh7R0P-sWK7r-258" vertex="1"><mxGeometry x="30" width="140" height="30" as="geometry"><mxRectangle width="140" height="30" as="alternateBounds"/></mxGeometry></mxCell><mxCell id="F4zQujOyoh7R0P-sWK7r-38" value="" style="shape=tableRow;horizontal=0;startSize=0;swimlaneHead=0;swimlaneBody=0;fillColor=none;collapsible=0;dropTarget=0;points=[[0,0.5],[1,0.5]];portConstraint=eastwest;top=0;left=0;right=0;bottom=0;" parent="F4zQujOyoh7R0P-sWK7r-9" vertex="1"><mxGeometry y="390" width="170" height="30" as="geometry"/></mxCell><mxCell id="F4zQujOyoh7R0P-sWK7r-39" value="" style="shape=partialRectangle;connectable=0;fillColor=none;top=0;left=0;bottom=0;right=0;editable=1;overflow=hidden;" parent="F4zQujOyoh7R0P-sWK7r-38" vertex="1"><mxGeometry width="30" height="30" as="geometry"><mxRectangle width="30" height="30" as="alternateBounds"/></mxGeometry></mxCell><mxCell id="F4zQujOyoh7R0P-sWK7r-40" value="is_deleted" style="shape=partialRectangle;connectable=0;fillColor=none;top=0;left=0;bottom=0;right=0;align=left;spacingLeft=6;overflow=hidden;" parent="F4zQujOyoh7R0P-sWK7r-38" vertex="1"><mxGeometry x="30" width="140" height="30" as="geometry"><mxRectangle width="140" height="30" as="alternateBounds"/></mxGeometry></mxCell><mxCell id="F4zQujOyoh7R0P-sWK7r-41" value="" style="shape=tableRow;horizontal=0;startSize=0;swimlaneHead=0;swimlaneBody=0;fillColor=none;collapsible=0;dropTarget=0;points=[[0,0.5],[1,0.5]];portConstraint=eastwest;top=0;left=0;right=0;bottom=0;" parent="F4zQujOyoh7R0P-sWK7r-9" vertex="1"><mxGeometry y="420" width="170" height="30" as="geometry"/></mxCell><mxCell id="F4zQujOyoh7R0P-sWK7r-42" value="" style="shape=partialRectangle;connectable=0;fillColor=none;top=0;left=0;bottom=0;right=0;editable=1;overflow=hidden;" parent="F4zQujOyoh7R0P-sWK7r-41" vertex="1"><mxGeometry width="30" height="30" as="geometry"><mxRectangle width="30" height="30" as="alternateBounds"/></mxGeometry></mxCell><mxCell id="F4zQujOyoh7R0P-sWK7r-43" value="created_by" style="shape=partialRectangle;connectable=0;fillColor=none;top=0;left=0;bottom=0;right=0;align=left;spacingLeft=6;overflow=hidden;" parent="F4zQujOyoh7R0P-sWK7r-41" vertex="1"><mxGeometry x="30" width="140" height="30" as="geometry"><mxRectangle width="140" height="30" as="alternateBounds"/></mxGeometry></mxCell><mxCell id="F4zQujOyoh7R0P-sWK7r-44" value="" style="shape=tableRow;horizontal=0;startSize=0;swimlaneHead=0;swimlaneBody=0;fillColor=none;collapsible=0;dropTarget=0;points=[[0,0.5],[1,0.5]];portConstraint=eastwest;top=0;left=0;right=0;bottom=0;" parent="F4zQujOyoh7R0P-sWK7r-9" vertex="1"><mxGeometry y="450" width="170" height="30" as="geometry"/></mxCell><mxCell id="F4zQujOyoh7R0P-sWK7r-45" value="" style="shape=partialRectangle;connectable=0;fillColor=none;top=0;left=0;bottom=0;right=0;editable=1;overflow=hidden;" parent="F4zQujOyoh7R0P-sWK7r-44" vertex="1"><mxGeometry width="30" height="30" as="geometry"><mxRectangle width="30" height="30" as="alternateBounds"/></mxGeometry></mxCell><mxCell id="F4zQujOyoh7R0P-sWK7r-46" value="updated_by" style="shape=partialRectangle;connectable=0;fillColor=none;top=0;left=0;bottom=0;right=0;align=left;spacingLeft=6;overflow=hidden;" parent="F4zQujOyoh7R0P-sWK7r-44" vertex="1"><mxGeometry x="30" width="140" height="30" as="geometry"><mxRectangle width="140" height="30" as="alternateBounds"/></mxGeometry></mxCell><mxCell id="F4zQujOyoh7R0P-sWK7r-47" value="" style="shape=tableRow;horizontal=0;startSize=0;swimlaneHead=0;swimlaneBody=0;fillColor=none;collapsible=0;dropTarget=0;points=[[0,0.5],[1,0.5]];portConstraint=eastwest;top=0;left=0;right=0;bottom=0;" parent="F4zQujOyoh7R0P-sWK7r-9" vertex="1"><mxGeometry y="480" width="170" height="30" as="geometry"/></mxCell><mxCell id="F4zQujOyoh7R0P-sWK7r-48" value="" style="shape=partialRectangle;connectable=0;fillColor=none;top=0;left=0;bottom=0;right=0;editable=1;overflow=hidden;" parent="F4zQujOyoh7R0P-sWK7r-47" vertex="1"><mxGeometry width="30" height="30" as="geometry"><mxRectangle width="30" height="30" as="alternateBounds"/></mxGeometry></mxCell><mxCell id="F4zQujOyoh7R0P-sWK7r-49" value="created_at" style="shape=partialRectangle;connectable=0;fillColor=none;top=0;left=0;bottom=0;right=0;align=left;spacingLeft=6;overflow=hidden;" parent="F4zQujOyoh7R0P-sWK7r-47" vertex="1"><mxGeometry x="30" width="140" height="30" as="geometry"><mxRectangle width="140" height="30" as="alternateBounds"/></mxGeometry></mxCell><mxCell id="F4zQujOyoh7R0P-sWK7r-90" value="" style="shape=tableRow;horizontal=0;startSize=0;swimlaneHead=0;swimlaneBody=0;fillColor=none;collapsible=0;dropTarget=0;points=[[0,0.5],[1,0.5]];portConstraint=eastwest;top=0;left=0;right=0;bottom=0;" parent="F4zQujOyoh7R0P-sWK7r-9" vertex="1"><mxGeometry y="510" width="170" height="30" as="geometry"/></mxCell><mxCell id="F4zQujOyoh7R0P-sWK7r-91" value="" style="shape=partialRectangle;connectable=0;fillColor=none;top=0;left=0;bottom=0;right=0;editable=1;overflow=hidden;" parent="F4zQujOyoh7R0P-sWK7r-90" vertex="1"><mxGeometry width="30" height="30" as="geometry"><mxRectangle width="30" height="30" as="alternateBounds"/></mxGeometry></mxCell><mxCell id="F4zQujOyoh7R0P-sWK7r-92" value="updated_at" style="shape=partialRectangle;connectable=0;fillColor=none;top=0;left=0;bottom=0;right=0;align=left;spacingLeft=6;overflow=hidden;" parent="F4zQujOyoh7R0P-sWK7r-90" vertex="1"><mxGeometry x="30" width="140" height="30" as="geometry"><mxRectangle width="140" height="30" as="alternateBounds"/></mxGeometry></mxCell><mxCell id="F4zQujOyoh7R0P-sWK7r-93" value="order_item" style="shape=table;startSize=30;container=1;collapsible=1;childLayout=tableLayout;fixedRows=1;rowLines=0;fontStyle=1;align=center;resizeLast=1;" parent="1" vertex="1"><mxGeometry x="470" y="20" width="160" height="570" as="geometry"/></mxCell><mxCell id="F4zQujOyoh7R0P-sWK7r-94" value="" style="shape=tableRow;horizontal=0;startSize=0;swimlaneHead=0;swimlaneBody=0;fillColor=none;collapsible=0;dropTarget=0;points=[[0,0.5],[1,0.5]];portConstraint=eastwest;top=0;left=0;right=0;bottom=1;" parent="F4zQujOyoh7R0P-sWK7r-93" vertex="1"><mxGeometry y="30" width="160" height="30" as="geometry"/></mxCell><mxCell id="F4zQujOyoh7R0P-sWK7r-95" value="PK" style="shape=partialRectangle;connectable=0;fillColor=none;top=0;left=0;bottom=0;right=0;fontStyle=1;overflow=hidden;" parent="F4zQujOyoh7R0P-sWK7r-94" vertex="1"><mxGeometry width="30" height="30" as="geometry"><mxRectangle width="30" height="30" as="alternateBounds"/></mxGeometry></mxCell><mxCell id="F4zQujOyoh7R0P-sWK7r-96" value="id" style="shape=partialRectangle;connectable=0;fillColor=none;top=0;left=0;bottom=0;right=0;align=left;spacingLeft=6;fontStyle=5;overflow=hidden;" parent="F4zQujOyoh7R0P-sWK7r-94" vertex="1"><mxGeometry x="30" width="130" height="30" as="geometry"><mxRectangle width="130" height="30" as="alternateBounds"/></mxGeometry></mxCell><mxCell id="F4zQujOyoh7R0P-sWK7r-97" value="" style="shape=tableRow;horizontal=0;startSize=0;swimlaneHead=0;swimlaneBody=0;fillColor=none;collapsible=0;dropTarget=0;points=[[0,0.5],[1,0.5]];portConstraint=eastwest;top=0;left=0;right=0;bottom=0;" parent="F4zQujOyoh7R0P-sWK7r-93" vertex="1"><mxGeometry y="60" width="160" height="30" as="geometry"/></mxCell><mxCell id="F4zQujOyoh7R0P-sWK7r-98" value="K" style="shape=partialRectangle;connectable=0;fillColor=none;top=0;left=0;bottom=0;right=0;editable=1;overflow=hidden;" parent="F4zQujOyoh7R0P-sWK7r-97" vertex="1"><mxGeometry width="30" height="30" as="geometry"><mxRectangle width="30" height="30" as="alternateBounds"/></mxGeometry></mxCell><mxCell id="F4zQujOyoh7R0P-sWK7r-99" value="space_id varchar(50)" style="shape=partialRectangle;connectable=0;fillColor=none;top=0;left=0;bottom=0;right=0;align=left;spacingLeft=6;overflow=hidden;" parent="F4zQujOyoh7R0P-sWK7r-97" vertex="1"><mxGeometry x="30" width="130" height="30" as="geometry"><mxRectangle width="130" height="30" as="alternateBounds"/></mxGeometry></mxCell><mxCell id="F4zQujOyoh7R0P-sWK7r-100" value="" style="shape=tableRow;horizontal=0;startSize=0;swimlaneHead=0;swimlaneBody=0;fillColor=none;collapsible=0;dropTarget=0;points=[[0,0.5],[1,0.5]];portConstraint=eastwest;top=0;left=0;right=0;bottom=0;" parent="F4zQujOyoh7R0P-sWK7r-93" vertex="1"><mxGeometry y="90" width="160" height="30" as="geometry"/></mxCell><mxCell id="F4zQujOyoh7R0P-sWK7r-101" value="K" style="shape=partialRectangle;connectable=0;fillColor=none;top=0;left=0;bottom=0;right=0;editable=1;overflow=hidden;" parent="F4zQujOyoh7R0P-sWK7r-100" vertex="1"><mxGeometry width="30" height="30" as="geometry"><mxRectangle width="30" height="30" as="alternateBounds"/></mxGeometry></mxCell><mxCell id="F4zQujOyoh7R0P-sWK7r-102" value="order_id" style="shape=partialRectangle;connectable=0;fillColor=none;top=0;left=0;bottom=0;right=0;align=left;spacingLeft=6;overflow=hidden;" parent="F4zQujOyoh7R0P-sWK7r-100" vertex="1"><mxGeometry x="30" width="130" height="30" as="geometry"><mxRectangle width="130" height="30" as="alternateBounds"/></mxGeometry></mxCell><mxCell id="F4zQujOyoh7R0P-sWK7r-103" value="" style="shape=tableRow;horizontal=0;startSize=0;swimlaneHead=0;swimlaneBody=0;fillColor=none;collapsible=0;dropTarget=0;points=[[0,0.5],[1,0.5]];portConstraint=eastwest;top=0;left=0;right=0;bottom=0;" parent="F4zQujOyoh7R0P-sWK7r-93" vertex="1"><mxGeometry y="120" width="160" height="30" as="geometry"/></mxCell><mxCell id="F4zQujOyoh7R0P-sWK7r-104" value="" style="shape=partialRectangle;connectable=0;fillColor=none;top=0;left=0;bottom=0;right=0;editable=1;overflow=hidden;" parent="F4zQujOyoh7R0P-sWK7r-103" vertex="1"><mxGeometry width="30" height="30" as="geometry"><mxRectangle width="30" height="30" as="alternateBounds"/></mxGeometry></mxCell><mxCell id="F4zQujOyoh7R0P-sWK7r-105" value="subscription_id" style="shape=partialRectangle;connectable=0;fillColor=none;top=0;left=0;bottom=0;right=0;align=left;spacingLeft=6;overflow=hidden;" parent="F4zQujOyoh7R0P-sWK7r-103" vertex="1"><mxGeometry x="30" width="130" height="30" as="geometry"><mxRectangle width="130" height="30" as="alternateBounds"/></mxGeometry></mxCell><mxCell id="F4zQujOyoh7R0P-sWK7r-117" value="" style="shape=tableRow;horizontal=0;startSize=0;swimlaneHead=0;swimlaneBody=0;fillColor=none;collapsible=0;dropTarget=0;points=[[0,0.5],[1,0.5]];portConstraint=eastwest;top=0;left=0;right=0;bottom=0;" parent="F4zQujOyoh7R0P-sWK7r-93" vertex="1"><mxGeometry y="150" width="160" height="30" as="geometry"/></mxCell><mxCell id="F4zQujOyoh7R0P-sWK7r-118" value="" style="shape=partialRectangle;connectable=0;fillColor=none;top=0;left=0;bottom=0;right=0;editable=1;overflow=hidden;" parent="F4zQujOyoh7R0P-sWK7r-117" vertex="1"><mxGeometry width="30" height="30" as="geometry"><mxRectangle width="30" height="30" as="alternateBounds"/></mxGeometry></mxCell><mxCell id="F4zQujOyoh7R0P-sWK7r-119" value="product_name" style="shape=partialRectangle;connectable=0;fillColor=none;top=0;left=0;bottom=0;right=0;align=left;spacingLeft=6;overflow=hidden;" parent="F4zQujOyoh7R0P-sWK7r-117" vertex="1"><mxGeometry x="30" width="130" height="30" as="geometry"><mxRectangle width="130" height="30" as="alternateBounds"/></mxGeometry></mxCell><mxCell id="6EP8Lx5cC8tgFNHVOdCp-195" value="" style="shape=tableRow;horizontal=0;startSize=0;swimlaneHead=0;swimlaneBody=0;fillColor=none;collapsible=0;dropTarget=0;points=[[0,0.5],[1,0.5]];portConstraint=eastwest;top=0;left=0;right=0;bottom=0;" parent="F4zQujOyoh7R0P-sWK7r-93" vertex="1"><mxGeometry y="180" width="160" height="30" as="geometry"/></mxCell><mxCell id="6EP8Lx5cC8tgFNHVOdCp-196" value="" style="shape=partialRectangle;connectable=0;fillColor=none;top=0;left=0;bottom=0;right=0;editable=1;overflow=hidden;" parent="6EP8Lx5cC8tgFNHVOdCp-195" vertex="1"><mxGeometry width="30" height="30" as="geometry"><mxRectangle width="30" height="30" as="alternateBounds"/></mxGeometry></mxCell><mxCell id="6EP8Lx5cC8tgFNHVOdCp-197" value="product_category" style="shape=partialRectangle;connectable=0;fillColor=none;top=0;left=0;bottom=0;right=0;align=left;spacingLeft=6;overflow=hidden;" parent="6EP8Lx5cC8tgFNHVOdCp-195" vertex="1"><mxGeometry x="30" width="130" height="30" as="geometry"><mxRectangle width="130" height="30" as="alternateBounds"/></mxGeometry></mxCell><mxCell id="F4zQujOyoh7R0P-sWK7r-106" value="" style="shape=tableRow;horizontal=0;startSize=0;swimlaneHead=0;swimlaneBody=0;fillColor=none;collapsible=0;dropTarget=0;points=[[0,0.5],[1,0.5]];portConstraint=eastwest;top=0;left=0;right=0;bottom=0;" parent="F4zQujOyoh7R0P-sWK7r-93" vertex="1"><mxGeometry y="210" width="160" height="30" as="geometry"/></mxCell><mxCell id="F4zQujOyoh7R0P-sWK7r-107" value="" style="shape=partialRectangle;connectable=0;fillColor=none;top=0;left=0;bottom=0;right=0;editable=1;overflow=hidden;" parent="F4zQujOyoh7R0P-sWK7r-106" vertex="1"><mxGeometry width="30" height="30" as="geometry"><mxRectangle width="30" height="30" as="alternateBounds"/></mxGeometry></mxCell><mxCell id="F4zQujOyoh7R0P-sWK7r-108" value="plan_id" style="shape=partialRectangle;connectable=0;fillColor=none;top=0;left=0;bottom=0;right=0;align=left;spacingLeft=6;overflow=hidden;" parent="F4zQujOyoh7R0P-sWK7r-106" vertex="1"><mxGeometry x="30" width="130" height="30" as="geometry"><mxRectangle width="130" height="30" as="alternateBounds"/></mxGeometry></mxCell><mxCell id="F4zQujOyoh7R0P-sWK7r-112" value="" style="shape=tableRow;horizontal=0;startSize=0;swimlaneHead=0;swimlaneBody=0;fillColor=none;collapsible=0;dropTarget=0;points=[[0,0.5],[1,0.5]];portConstraint=eastwest;top=0;left=0;right=0;bottom=0;" parent="F4zQujOyoh7R0P-sWK7r-93" vertex="1"><mxGeometry y="240" width="160" height="30" as="geometry"/></mxCell><mxCell id="F4zQujOyoh7R0P-sWK7r-113" value="" style="shape=partialRectangle;connectable=0;fillColor=none;top=0;left=0;bottom=0;right=0;editable=1;overflow=hidden;" parent="F4zQujOyoh7R0P-sWK7r-112" vertex="1"><mxGeometry width="30" height="30" as="geometry"><mxRectangle width="30" height="30" as="alternateBounds"/></mxGeometry></mxCell><mxCell id="F4zQujOyoh7R0P-sWK7r-114" value="start_date" style="shape=partialRectangle;connectable=0;fillColor=none;top=0;left=0;bottom=0;right=0;align=left;spacingLeft=6;overflow=hidden;" parent="F4zQujOyoh7R0P-sWK7r-112" vertex="1"><mxGeometry x="30" width="130" height="30" as="geometry"><mxRectangle width="130" height="30" as="alternateBounds"/></mxGeometry></mxCell><mxCell id="F4zQujOyoh7R0P-sWK7r-120" value="" style="shape=tableRow;horizontal=0;startSize=0;swimlaneHead=0;swimlaneBody=0;fillColor=none;collapsible=0;dropTarget=0;points=[[0,0.5],[1,0.5]];portConstraint=eastwest;top=0;left=0;right=0;bottom=0;" parent="F4zQujOyoh7R0P-sWK7r-93" vertex="1"><mxGeometry y="270" width="160" height="30" as="geometry"/></mxCell><mxCell id="F4zQujOyoh7R0P-sWK7r-121" value="" style="shape=partialRectangle;connectable=0;fillColor=none;top=0;left=0;bottom=0;right=0;editable=1;overflow=hidden;" parent="F4zQujOyoh7R0P-sWK7r-120" vertex="1"><mxGeometry width="30" height="30" as="geometry"><mxRectangle width="30" height="30" as="alternateBounds"/></mxGeometry></mxCell><mxCell id="F4zQujOyoh7R0P-sWK7r-122" value="end_date" style="shape=partialRectangle;connectable=0;fillColor=none;top=0;left=0;bottom=0;right=0;align=left;spacingLeft=6;overflow=hidden;" parent="F4zQujOyoh7R0P-sWK7r-120" vertex="1"><mxGeometry x="30" width="130" height="30" as="geometry"><mxRectangle width="130" height="30" as="alternateBounds"/></mxGeometry></mxCell><mxCell id="F4zQujOyoh7R0P-sWK7r-129" value="" style="shape=tableRow;horizontal=0;startSize=0;swimlaneHead=0;swimlaneBody=0;fillColor=none;collapsible=0;dropTarget=0;points=[[0,0.5],[1,0.5]];portConstraint=eastwest;top=0;left=0;right=0;bottom=0;" parent="F4zQujOyoh7R0P-sWK7r-93" vertex="1"><mxGeometry y="300" width="160" height="30" as="geometry"/></mxCell><mxCell id="F4zQujOyoh7R0P-sWK7r-130" value="" style="shape=partialRectangle;connectable=0;fillColor=none;top=0;left=0;bottom=0;right=0;editable=1;overflow=hidden;" parent="F4zQujOyoh7R0P-sWK7r-129" vertex="1"><mxGeometry width="30" height="30" as="geometry"><mxRectangle width="30" height="30" as="alternateBounds"/></mxGeometry></mxCell><mxCell id="F4zQujOyoh7R0P-sWK7r-131" value="currency" style="shape=partialRectangle;connectable=0;fillColor=none;top=0;left=0;bottom=0;right=0;align=left;spacingLeft=6;overflow=hidden;" parent="F4zQujOyoh7R0P-sWK7r-129" vertex="1"><mxGeometry x="30" width="130" height="30" as="geometry"><mxRectangle width="130" height="30" as="alternateBounds"/></mxGeometry></mxCell><mxCell id="F4zQujOyoh7R0P-sWK7r-123" value="" style="shape=tableRow;horizontal=0;startSize=0;swimlaneHead=0;swimlaneBody=0;fillColor=none;collapsible=0;dropTarget=0;points=[[0,0.5],[1,0.5]];portConstraint=eastwest;top=0;left=0;right=0;bottom=0;" parent="F4zQujOyoh7R0P-sWK7r-93" vertex="1"><mxGeometry y="330" width="160" height="30" as="geometry"/></mxCell><mxCell id="F4zQujOyoh7R0P-sWK7r-124" value="" style="shape=partialRectangle;connectable=0;fillColor=none;top=0;left=0;bottom=0;right=0;editable=1;overflow=hidden;" parent="F4zQujOyoh7R0P-sWK7r-123" vertex="1"><mxGeometry width="30" height="30" as="geometry"><mxRectangle width="30" height="30" as="alternateBounds"/></mxGeometry></mxCell><mxCell id="F4zQujOyoh7R0P-sWK7r-125" value="amount" style="shape=partialRectangle;connectable=0;fillColor=none;top=0;left=0;bottom=0;right=0;align=left;spacingLeft=6;overflow=hidden;" parent="F4zQujOyoh7R0P-sWK7r-123" vertex="1"><mxGeometry x="30" width="130" height="30" as="geometry"><mxRectangle width="130" height="30" as="alternateBounds"/></mxGeometry></mxCell><mxCell id="F4zQujOyoh7R0P-sWK7r-126" value="" style="shape=tableRow;horizontal=0;startSize=0;swimlaneHead=0;swimlaneBody=0;fillColor=none;collapsible=0;dropTarget=0;points=[[0,0.5],[1,0.5]];portConstraint=eastwest;top=0;left=0;right=0;bottom=0;" parent="F4zQujOyoh7R0P-sWK7r-93" vertex="1"><mxGeometry y="360" width="160" height="30" as="geometry"/></mxCell><mxCell id="F4zQujOyoh7R0P-sWK7r-127" value="" style="shape=partialRectangle;connectable=0;fillColor=none;top=0;left=0;bottom=0;right=0;editable=1;overflow=hidden;" parent="F4zQujOyoh7R0P-sWK7r-126" vertex="1"><mxGeometry width="30" height="30" as="geometry"><mxRectangle width="30" height="30" as="alternateBounds"/></mxGeometry></mxCell><mxCell id="F4zQujOyoh7R0P-sWK7r-128" value="iteam_details" style="shape=partialRectangle;connectable=0;fillColor=none;top=0;left=0;bottom=0;right=0;align=left;spacingLeft=6;overflow=hidden;" parent="F4zQujOyoh7R0P-sWK7r-126" vertex="1"><mxGeometry x="30" width="130" height="30" as="geometry"><mxRectangle width="130" height="30" as="alternateBounds"/></mxGeometry></mxCell><mxCell id="F4zQujOyoh7R0P-sWK7r-132" value="" style="shape=tableRow;horizontal=0;startSize=0;swimlaneHead=0;swimlaneBody=0;fillColor=none;collapsible=0;dropTarget=0;points=[[0,0.5],[1,0.5]];portConstraint=eastwest;top=0;left=0;right=0;bottom=0;" parent="F4zQujOyoh7R0P-sWK7r-93" vertex="1"><mxGeometry y="390" width="160" height="30" as="geometry"/></mxCell><mxCell id="F4zQujOyoh7R0P-sWK7r-133" value="" style="shape=partialRectangle;connectable=0;fillColor=none;top=0;left=0;bottom=0;right=0;editable=1;overflow=hidden;" parent="F4zQujOyoh7R0P-sWK7r-132" vertex="1"><mxGeometry width="30" height="30" as="geometry"><mxRectangle width="30" height="30" as="alternateBounds"/></mxGeometry></mxCell><mxCell id="F4zQujOyoh7R0P-sWK7r-134" value="desc" style="shape=partialRectangle;connectable=0;fillColor=none;top=0;left=0;bottom=0;right=0;align=left;spacingLeft=6;overflow=hidden;" parent="F4zQujOyoh7R0P-sWK7r-132" vertex="1"><mxGeometry x="30" width="130" height="30" as="geometry"><mxRectangle width="130" height="30" as="alternateBounds"/></mxGeometry></mxCell><mxCell id="F4zQujOyoh7R0P-sWK7r-188" value="" style="shape=tableRow;horizontal=0;startSize=0;swimlaneHead=0;swimlaneBody=0;fillColor=none;collapsible=0;dropTarget=0;points=[[0,0.5],[1,0.5]];portConstraint=eastwest;top=0;left=0;right=0;bottom=0;" parent="F4zQujOyoh7R0P-sWK7r-93" vertex="1"><mxGeometry y="420" width="160" height="30" as="geometry"/></mxCell><mxCell id="F4zQujOyoh7R0P-sWK7r-189" value="" style="shape=partialRectangle;connectable=0;fillColor=none;top=0;left=0;bottom=0;right=0;editable=1;overflow=hidden;" parent="F4zQujOyoh7R0P-sWK7r-188" vertex="1"><mxGeometry width="30" height="30" as="geometry"><mxRectangle width="30" height="30" as="alternateBounds"/></mxGeometry></mxCell><mxCell id="F4zQujOyoh7R0P-sWK7r-190" value="is_deleted" style="shape=partialRectangle;connectable=0;fillColor=none;top=0;left=0;bottom=0;right=0;align=left;spacingLeft=6;overflow=hidden;" parent="F4zQujOyoh7R0P-sWK7r-188" vertex="1"><mxGeometry x="30" width="130" height="30" as="geometry"><mxRectangle width="130" height="30" as="alternateBounds"/></mxGeometry></mxCell><mxCell id="F4zQujOyoh7R0P-sWK7r-200" value="" style="shape=tableRow;horizontal=0;startSize=0;swimlaneHead=0;swimlaneBody=0;fillColor=none;collapsible=0;dropTarget=0;points=[[0,0.5],[1,0.5]];portConstraint=eastwest;top=0;left=0;right=0;bottom=0;" parent="F4zQujOyoh7R0P-sWK7r-93" vertex="1"><mxGeometry y="450" width="160" height="30" as="geometry"/></mxCell><mxCell id="F4zQujOyoh7R0P-sWK7r-201" value="" style="shape=partialRectangle;connectable=0;fillColor=none;top=0;left=0;bottom=0;right=0;editable=1;overflow=hidden;" parent="F4zQujOyoh7R0P-sWK7r-200" vertex="1"><mxGeometry width="30" height="30" as="geometry"><mxRectangle width="30" height="30" as="alternateBounds"/></mxGeometry></mxCell><mxCell id="F4zQujOyoh7R0P-sWK7r-202" value="updated_at" style="shape=partialRectangle;connectable=0;fillColor=none;top=0;left=0;bottom=0;right=0;align=left;spacingLeft=6;overflow=hidden;" parent="F4zQujOyoh7R0P-sWK7r-200" vertex="1"><mxGeometry x="30" width="130" height="30" as="geometry"><mxRectangle width="130" height="30" as="alternateBounds"/></mxGeometry></mxCell><mxCell id="F4zQujOyoh7R0P-sWK7r-197" value="" style="shape=tableRow;horizontal=0;startSize=0;swimlaneHead=0;swimlaneBody=0;fillColor=none;collapsible=0;dropTarget=0;points=[[0,0.5],[1,0.5]];portConstraint=eastwest;top=0;left=0;right=0;bottom=0;" parent="F4zQujOyoh7R0P-sWK7r-93" vertex="1"><mxGeometry y="480" width="160" height="30" as="geometry"/></mxCell><mxCell id="F4zQujOyoh7R0P-sWK7r-198" value="" style="shape=partialRectangle;connectable=0;fillColor=none;top=0;left=0;bottom=0;right=0;editable=1;overflow=hidden;" parent="F4zQujOyoh7R0P-sWK7r-197" vertex="1"><mxGeometry width="30" height="30" as="geometry"><mxRectangle width="30" height="30" as="alternateBounds"/></mxGeometry></mxCell><mxCell id="F4zQujOyoh7R0P-sWK7r-199" value="created_at" style="shape=partialRectangle;connectable=0;fillColor=none;top=0;left=0;bottom=0;right=0;align=left;spacingLeft=6;overflow=hidden;" parent="F4zQujOyoh7R0P-sWK7r-197" vertex="1"><mxGeometry x="30" width="130" height="30" as="geometry"><mxRectangle width="130" height="30" as="alternateBounds"/></mxGeometry></mxCell><mxCell id="F4zQujOyoh7R0P-sWK7r-194" value="" style="shape=tableRow;horizontal=0;startSize=0;swimlaneHead=0;swimlaneBody=0;fillColor=none;collapsible=0;dropTarget=0;points=[[0,0.5],[1,0.5]];portConstraint=eastwest;top=0;left=0;right=0;bottom=0;" parent="F4zQujOyoh7R0P-sWK7r-93" vertex="1"><mxGeometry y="510" width="160" height="30" as="geometry"/></mxCell><mxCell id="F4zQujOyoh7R0P-sWK7r-195" value="" style="shape=partialRectangle;connectable=0;fillColor=none;top=0;left=0;bottom=0;right=0;editable=1;overflow=hidden;" parent="F4zQujOyoh7R0P-sWK7r-194" vertex="1"><mxGeometry width="30" height="30" as="geometry"><mxRectangle width="30" height="30" as="alternateBounds"/></mxGeometry></mxCell><mxCell id="F4zQujOyoh7R0P-sWK7r-196" value="updated_by" style="shape=partialRectangle;connectable=0;fillColor=none;top=0;left=0;bottom=0;right=0;align=left;spacingLeft=6;overflow=hidden;" parent="F4zQujOyoh7R0P-sWK7r-194" vertex="1"><mxGeometry x="30" width="130" height="30" as="geometry"><mxRectangle width="130" height="30" as="alternateBounds"/></mxGeometry></mxCell><mxCell id="F4zQujOyoh7R0P-sWK7r-191" value="" style="shape=tableRow;horizontal=0;startSize=0;swimlaneHead=0;swimlaneBody=0;fillColor=none;collapsible=0;dropTarget=0;points=[[0,0.5],[1,0.5]];portConstraint=eastwest;top=0;left=0;right=0;bottom=0;" parent="F4zQujOyoh7R0P-sWK7r-93" vertex="1"><mxGeometry y="540" width="160" height="30" as="geometry"/></mxCell><mxCell id="F4zQujOyoh7R0P-sWK7r-192" value="" style="shape=partialRectangle;connectable=0;fillColor=none;top=0;left=0;bottom=0;right=0;editable=1;overflow=hidden;" parent="F4zQujOyoh7R0P-sWK7r-191" vertex="1"><mxGeometry width="30" height="30" as="geometry"><mxRectangle width="30" height="30" as="alternateBounds"/></mxGeometry></mxCell><mxCell id="F4zQujOyoh7R0P-sWK7r-193" value="created_by" style="shape=partialRectangle;connectable=0;fillColor=none;top=0;left=0;bottom=0;right=0;align=left;spacingLeft=6;overflow=hidden;" parent="F4zQujOyoh7R0P-sWK7r-191" vertex="1"><mxGeometry x="30" width="130" height="30" as="geometry"><mxRectangle width="130" height="30" as="alternateBounds"/></mxGeometry></mxCell><mxCell id="F4zQujOyoh7R0P-sWK7r-209" value="order_payment" style="shape=table;startSize=30;container=1;collapsible=1;childLayout=tableLayout;fixedRows=1;rowLines=0;fontStyle=1;align=center;resizeLast=1;" parent="1" vertex="1"><mxGeometry x="470" y="610" width="210" height="520" as="geometry"/></mxCell><mxCell id="F4zQujOyoh7R0P-sWK7r-210" value="" style="shape=tableRow;horizontal=0;startSize=0;swimlaneHead=0;swimlaneBody=0;fillColor=none;collapsible=0;dropTarget=0;points=[[0,0.5],[1,0.5]];portConstraint=eastwest;top=0;left=0;right=0;bottom=1;" parent="F4zQujOyoh7R0P-sWK7r-209" vertex="1"><mxGeometry y="30" width="210" height="30" as="geometry"/></mxCell><mxCell id="F4zQujOyoh7R0P-sWK7r-211" value="PK" style="shape=partialRectangle;connectable=0;fillColor=none;top=0;left=0;bottom=0;right=0;fontStyle=1;overflow=hidden;" parent="F4zQujOyoh7R0P-sWK7r-210" vertex="1"><mxGeometry width="30" height="30" as="geometry"><mxRectangle width="30" height="30" as="alternateBounds"/></mxGeometry></mxCell><mxCell id="F4zQujOyoh7R0P-sWK7r-212" value="id" style="shape=partialRectangle;connectable=0;fillColor=none;top=0;left=0;bottom=0;right=0;align=left;spacingLeft=6;fontStyle=5;overflow=hidden;" parent="F4zQujOyoh7R0P-sWK7r-210" vertex="1"><mxGeometry x="30" width="180" height="30" as="geometry"><mxRectangle width="180" height="30" as="alternateBounds"/></mxGeometry></mxCell><mxCell id="F4zQujOyoh7R0P-sWK7r-216" value="" style="shape=tableRow;horizontal=0;startSize=0;swimlaneHead=0;swimlaneBody=0;fillColor=none;collapsible=0;dropTarget=0;points=[[0,0.5],[1,0.5]];portConstraint=eastwest;top=0;left=0;right=0;bottom=0;" parent="F4zQujOyoh7R0P-sWK7r-209" vertex="1"><mxGeometry y="60" width="210" height="30" as="geometry"/></mxCell><mxCell id="F4zQujOyoh7R0P-sWK7r-217" value="K" style="shape=partialRectangle;connectable=0;fillColor=none;top=0;left=0;bottom=0;right=0;editable=1;overflow=hidden;" parent="F4zQujOyoh7R0P-sWK7r-216" vertex="1"><mxGeometry width="30" height="30" as="geometry"><mxRectangle width="30" height="30" as="alternateBounds"/></mxGeometry></mxCell><mxCell id="F4zQujOyoh7R0P-sWK7r-218" value="order_id" style="shape=partialRectangle;connectable=0;fillColor=none;top=0;left=0;bottom=0;right=0;align=left;spacingLeft=6;overflow=hidden;" parent="F4zQujOyoh7R0P-sWK7r-216" vertex="1"><mxGeometry x="30" width="180" height="30" as="geometry"><mxRectangle width="180" height="30" as="alternateBounds"/></mxGeometry></mxCell><mxCell id="F4zQujOyoh7R0P-sWK7r-219" value="" style="shape=tableRow;horizontal=0;startSize=0;swimlaneHead=0;swimlaneBody=0;fillColor=none;collapsible=0;dropTarget=0;points=[[0,0.5],[1,0.5]];portConstraint=eastwest;top=0;left=0;right=0;bottom=0;" parent="F4zQujOyoh7R0P-sWK7r-209" vertex="1"><mxGeometry y="90" width="210" height="30" as="geometry"/></mxCell><mxCell id="F4zQujOyoh7R0P-sWK7r-220" value="UK" style="shape=partialRectangle;connectable=0;fillColor=none;top=0;left=0;bottom=0;right=0;editable=1;overflow=hidden;" parent="F4zQujOyoh7R0P-sWK7r-219" vertex="1"><mxGeometry width="30" height="30" as="geometry"><mxRectangle width="30" height="30" as="alternateBounds"/></mxGeometry></mxCell><mxCell id="F4zQujOyoh7R0P-sWK7r-221" value="payment_transaction_id" style="shape=partialRectangle;connectable=0;fillColor=none;top=0;left=0;bottom=0;right=0;align=left;spacingLeft=6;overflow=hidden;" parent="F4zQujOyoh7R0P-sWK7r-219" vertex="1"><mxGeometry x="30" width="180" height="30" as="geometry"><mxRectangle width="180" height="30" as="alternateBounds"/></mxGeometry></mxCell><mxCell id="F4zQujOyoh7R0P-sWK7r-228" value="" style="shape=tableRow;horizontal=0;startSize=0;swimlaneHead=0;swimlaneBody=0;fillColor=none;collapsible=0;dropTarget=0;points=[[0,0.5],[1,0.5]];portConstraint=eastwest;top=0;left=0;right=0;bottom=0;" parent="F4zQujOyoh7R0P-sWK7r-209" vertex="1"><mxGeometry y="120" width="210" height="30" as="geometry"/></mxCell><mxCell id="F4zQujOyoh7R0P-sWK7r-229" value="" style="shape=partialRectangle;connectable=0;fillColor=none;top=0;left=0;bottom=0;right=0;editable=1;overflow=hidden;" parent="F4zQujOyoh7R0P-sWK7r-228" vertex="1"><mxGeometry width="30" height="30" as="geometry"><mxRectangle width="30" height="30" as="alternateBounds"/></mxGeometry></mxCell><mxCell id="F4zQujOyoh7R0P-sWK7r-230" value="currency" style="shape=partialRectangle;connectable=0;fillColor=none;top=0;left=0;bottom=0;right=0;align=left;spacingLeft=6;overflow=hidden;" parent="F4zQujOyoh7R0P-sWK7r-228" vertex="1"><mxGeometry x="30" width="180" height="30" as="geometry"><mxRectangle width="180" height="30" as="alternateBounds"/></mxGeometry></mxCell><mxCell id="F4zQujOyoh7R0P-sWK7r-231" value="" style="shape=tableRow;horizontal=0;startSize=0;swimlaneHead=0;swimlaneBody=0;fillColor=none;collapsible=0;dropTarget=0;points=[[0,0.5],[1,0.5]];portConstraint=eastwest;top=0;left=0;right=0;bottom=0;" parent="F4zQujOyoh7R0P-sWK7r-209" vertex="1"><mxGeometry y="150" width="210" height="30" as="geometry"/></mxCell><mxCell id="F4zQujOyoh7R0P-sWK7r-232" value="" style="shape=partialRectangle;connectable=0;fillColor=none;top=0;left=0;bottom=0;right=0;editable=1;overflow=hidden;" parent="F4zQujOyoh7R0P-sWK7r-231" vertex="1"><mxGeometry width="30" height="30" as="geometry"><mxRectangle width="30" height="30" as="alternateBounds"/></mxGeometry></mxCell><mxCell id="F4zQujOyoh7R0P-sWK7r-233" value="amount" style="shape=partialRectangle;connectable=0;fillColor=none;top=0;left=0;bottom=0;right=0;align=left;spacingLeft=6;overflow=hidden;" parent="F4zQujOyoh7R0P-sWK7r-231" vertex="1"><mxGeometry x="30" width="180" height="30" as="geometry"><mxRectangle width="180" height="30" as="alternateBounds"/></mxGeometry></mxCell><mxCell id="F4zQujOyoh7R0P-sWK7r-334" value="" style="shape=tableRow;horizontal=0;startSize=0;swimlaneHead=0;swimlaneBody=0;fillColor=none;collapsible=0;dropTarget=0;points=[[0,0.5],[1,0.5]];portConstraint=eastwest;top=0;left=0;right=0;bottom=0;" parent="F4zQujOyoh7R0P-sWK7r-209" vertex="1"><mxGeometry y="180" width="210" height="30" as="geometry"/></mxCell><mxCell id="F4zQujOyoh7R0P-sWK7r-335" value="" style="shape=partialRectangle;connectable=0;fillColor=none;top=0;left=0;bottom=0;right=0;editable=1;overflow=hidden;" parent="F4zQujOyoh7R0P-sWK7r-334" vertex="1"><mxGeometry width="30" height="30" as="geometry"><mxRectangle width="30" height="30" as="alternateBounds"/></mxGeometry></mxCell><mxCell id="F4zQujOyoh7R0P-sWK7r-336" value="pay_channel" style="shape=partialRectangle;connectable=0;fillColor=none;top=0;left=0;bottom=0;right=0;align=left;spacingLeft=6;overflow=hidden;" parent="F4zQujOyoh7R0P-sWK7r-334" vertex="1"><mxGeometry x="30" width="180" height="30" as="geometry"><mxRectangle width="180" height="30" as="alternateBounds"/></mxGeometry></mxCell><mxCell id="F4zQujOyoh7R0P-sWK7r-337" value="" style="shape=tableRow;horizontal=0;startSize=0;swimlaneHead=0;swimlaneBody=0;fillColor=none;collapsible=0;dropTarget=0;points=[[0,0.5],[1,0.5]];portConstraint=eastwest;top=0;left=0;right=0;bottom=0;" parent="F4zQujOyoh7R0P-sWK7r-209" vertex="1"><mxGeometry y="210" width="210" height="30" as="geometry"/></mxCell><mxCell id="F4zQujOyoh7R0P-sWK7r-338" value="" style="shape=partialRectangle;connectable=0;fillColor=none;top=0;left=0;bottom=0;right=0;editable=1;overflow=hidden;" parent="F4zQujOyoh7R0P-sWK7r-337" vertex="1"><mxGeometry width="30" height="30" as="geometry"><mxRectangle width="30" height="30" as="alternateBounds"/></mxGeometry></mxCell><mxCell id="F4zQujOyoh7R0P-sWK7r-339" value="pay_channel_transaction_id" style="shape=partialRectangle;connectable=0;fillColor=none;top=0;left=0;bottom=0;right=0;align=left;spacingLeft=6;overflow=hidden;" parent="F4zQujOyoh7R0P-sWK7r-337" vertex="1"><mxGeometry x="30" width="180" height="30" as="geometry"><mxRectangle width="180" height="30" as="alternateBounds"/></mxGeometry></mxCell><mxCell id="F4zQujOyoh7R0P-sWK7r-237" value="" style="shape=tableRow;horizontal=0;startSize=0;swimlaneHead=0;swimlaneBody=0;fillColor=none;collapsible=0;dropTarget=0;points=[[0,0.5],[1,0.5]];portConstraint=eastwest;top=0;left=0;right=0;bottom=0;" parent="F4zQujOyoh7R0P-sWK7r-209" vertex="1"><mxGeometry y="240" width="210" height="30" as="geometry"/></mxCell><mxCell id="F4zQujOyoh7R0P-sWK7r-238" value="" style="shape=partialRectangle;connectable=0;fillColor=none;top=0;left=0;bottom=0;right=0;editable=1;overflow=hidden;" parent="F4zQujOyoh7R0P-sWK7r-237" vertex="1"><mxGeometry width="30" height="30" as="geometry"><mxRectangle width="30" height="30" as="alternateBounds"/></mxGeometry></mxCell><mxCell id="F4zQujOyoh7R0P-sWK7r-239" value="paid_time" style="shape=partialRectangle;connectable=0;fillColor=none;top=0;left=0;bottom=0;right=0;align=left;spacingLeft=6;overflow=hidden;" parent="F4zQujOyoh7R0P-sWK7r-237" vertex="1"><mxGeometry x="30" width="180" height="30" as="geometry"><mxRectangle width="180" height="30" as="alternateBounds"/></mxGeometry></mxCell><mxCell id="F4zQujOyoh7R0P-sWK7r-301" value="" style="shape=tableRow;horizontal=0;startSize=0;swimlaneHead=0;swimlaneBody=0;fillColor=none;collapsible=0;dropTarget=0;points=[[0,0.5],[1,0.5]];portConstraint=eastwest;top=0;left=0;right=0;bottom=0;" parent="F4zQujOyoh7R0P-sWK7r-209" vertex="1"><mxGeometry y="270" width="210" height="30" as="geometry"/></mxCell><mxCell id="F4zQujOyoh7R0P-sWK7r-302" value="" style="shape=partialRectangle;connectable=0;fillColor=none;top=0;left=0;bottom=0;right=0;editable=1;overflow=hidden;" parent="F4zQujOyoh7R0P-sWK7r-301" vertex="1"><mxGeometry width="30" height="30" as="geometry"><mxRectangle width="30" height="30" as="alternateBounds"/></mxGeometry></mxCell><mxCell id="F4zQujOyoh7R0P-sWK7r-303" value="paid_success" style="shape=partialRectangle;connectable=0;fillColor=none;top=0;left=0;bottom=0;right=0;align=left;spacingLeft=6;overflow=hidden;" parent="F4zQujOyoh7R0P-sWK7r-301" vertex="1"><mxGeometry x="30" width="180" height="30" as="geometry"><mxRectangle width="180" height="30" as="alternateBounds"/></mxGeometry></mxCell><mxCell id="F4zQujOyoh7R0P-sWK7r-304" value="" style="shape=tableRow;horizontal=0;startSize=0;swimlaneHead=0;swimlaneBody=0;fillColor=none;collapsible=0;dropTarget=0;points=[[0,0.5],[1,0.5]];portConstraint=eastwest;top=0;left=0;right=0;bottom=0;" parent="F4zQujOyoh7R0P-sWK7r-209" vertex="1"><mxGeometry y="300" width="210" height="30" as="geometry"/></mxCell><mxCell id="F4zQujOyoh7R0P-sWK7r-305" value="" style="shape=partialRectangle;connectable=0;fillColor=none;top=0;left=0;bottom=0;right=0;editable=1;overflow=hidden;" parent="F4zQujOyoh7R0P-sWK7r-304" vertex="1"><mxGeometry width="30" height="30" as="geometry"><mxRectangle width="30" height="30" as="alternateBounds"/></mxGeometry></mxCell><mxCell id="F4zQujOyoh7R0P-sWK7r-306" value="raw_data" style="shape=partialRectangle;connectable=0;fillColor=none;top=0;left=0;bottom=0;right=0;align=left;spacingLeft=6;overflow=hidden;" parent="F4zQujOyoh7R0P-sWK7r-304" vertex="1"><mxGeometry x="30" width="180" height="30" as="geometry"><mxRectangle width="180" height="30" as="alternateBounds"/></mxGeometry></mxCell><mxCell id="F4zQujOyoh7R0P-sWK7r-240" value="" style="shape=tableRow;horizontal=0;startSize=0;swimlaneHead=0;swimlaneBody=0;fillColor=none;collapsible=0;dropTarget=0;points=[[0,0.5],[1,0.5]];portConstraint=eastwest;top=0;left=0;right=0;bottom=0;" parent="F4zQujOyoh7R0P-sWK7r-209" vertex="1"><mxGeometry y="330" width="210" height="30" as="geometry"/></mxCell><mxCell id="F4zQujOyoh7R0P-sWK7r-241" value="" style="shape=partialRectangle;connectable=0;fillColor=none;top=0;left=0;bottom=0;right=0;editable=1;overflow=hidden;" parent="F4zQujOyoh7R0P-sWK7r-240" vertex="1"><mxGeometry width="30" height="30" as="geometry"><mxRectangle width="30" height="30" as="alternateBounds"/></mxGeometry></mxCell><mxCell id="F4zQujOyoh7R0P-sWK7r-242" value="desc" style="shape=partialRectangle;connectable=0;fillColor=none;top=0;left=0;bottom=0;right=0;align=left;spacingLeft=6;overflow=hidden;" parent="F4zQujOyoh7R0P-sWK7r-240" vertex="1"><mxGeometry x="30" width="180" height="30" as="geometry"><mxRectangle width="180" height="30" as="alternateBounds"/></mxGeometry></mxCell><mxCell id="F4zQujOyoh7R0P-sWK7r-243" value="" style="shape=tableRow;horizontal=0;startSize=0;swimlaneHead=0;swimlaneBody=0;fillColor=none;collapsible=0;dropTarget=0;points=[[0,0.5],[1,0.5]];portConstraint=eastwest;top=0;left=0;right=0;bottom=0;" parent="F4zQujOyoh7R0P-sWK7r-209" vertex="1"><mxGeometry y="360" width="210" height="30" as="geometry"/></mxCell><mxCell id="F4zQujOyoh7R0P-sWK7r-244" value="" style="shape=partialRectangle;connectable=0;fillColor=none;top=0;left=0;bottom=0;right=0;editable=1;overflow=hidden;" parent="F4zQujOyoh7R0P-sWK7r-243" vertex="1"><mxGeometry width="30" height="30" as="geometry"><mxRectangle width="30" height="30" as="alternateBounds"/></mxGeometry></mxCell><mxCell id="F4zQujOyoh7R0P-sWK7r-245" value="is_deleted" style="shape=partialRectangle;connectable=0;fillColor=none;top=0;left=0;bottom=0;right=0;align=left;spacingLeft=6;overflow=hidden;" parent="F4zQujOyoh7R0P-sWK7r-243" vertex="1"><mxGeometry x="30" width="180" height="30" as="geometry"><mxRectangle width="180" height="30" as="alternateBounds"/></mxGeometry></mxCell><mxCell id="F4zQujOyoh7R0P-sWK7r-246" value="" style="shape=tableRow;horizontal=0;startSize=0;swimlaneHead=0;swimlaneBody=0;fillColor=none;collapsible=0;dropTarget=0;points=[[0,0.5],[1,0.5]];portConstraint=eastwest;top=0;left=0;right=0;bottom=0;" parent="F4zQujOyoh7R0P-sWK7r-209" vertex="1"><mxGeometry y="390" width="210" height="30" as="geometry"/></mxCell><mxCell id="F4zQujOyoh7R0P-sWK7r-247" value="" style="shape=partialRectangle;connectable=0;fillColor=none;top=0;left=0;bottom=0;right=0;editable=1;overflow=hidden;" parent="F4zQujOyoh7R0P-sWK7r-246" vertex="1"><mxGeometry width="30" height="30" as="geometry"><mxRectangle width="30" height="30" as="alternateBounds"/></mxGeometry></mxCell><mxCell id="F4zQujOyoh7R0P-sWK7r-248" value="created_by" style="shape=partialRectangle;connectable=0;fillColor=none;top=0;left=0;bottom=0;right=0;align=left;spacingLeft=6;overflow=hidden;" parent="F4zQujOyoh7R0P-sWK7r-246" vertex="1"><mxGeometry x="30" width="180" height="30" as="geometry"><mxRectangle width="180" height="30" as="alternateBounds"/></mxGeometry></mxCell><mxCell id="F4zQujOyoh7R0P-sWK7r-249" value="" style="shape=tableRow;horizontal=0;startSize=0;swimlaneHead=0;swimlaneBody=0;fillColor=none;collapsible=0;dropTarget=0;points=[[0,0.5],[1,0.5]];portConstraint=eastwest;top=0;left=0;right=0;bottom=0;" parent="F4zQujOyoh7R0P-sWK7r-209" vertex="1"><mxGeometry y="420" width="210" height="30" as="geometry"/></mxCell><mxCell id="F4zQujOyoh7R0P-sWK7r-250" value="" style="shape=partialRectangle;connectable=0;fillColor=none;top=0;left=0;bottom=0;right=0;editable=1;overflow=hidden;" parent="F4zQujOyoh7R0P-sWK7r-249" vertex="1"><mxGeometry width="30" height="30" as="geometry"><mxRectangle width="30" height="30" as="alternateBounds"/></mxGeometry></mxCell><mxCell id="F4zQujOyoh7R0P-sWK7r-251" value="updated_by" style="shape=partialRectangle;connectable=0;fillColor=none;top=0;left=0;bottom=0;right=0;align=left;spacingLeft=6;overflow=hidden;" parent="F4zQujOyoh7R0P-sWK7r-249" vertex="1"><mxGeometry x="30" width="180" height="30" as="geometry"><mxRectangle width="180" height="30" as="alternateBounds"/></mxGeometry></mxCell><mxCell id="F4zQujOyoh7R0P-sWK7r-252" value="" style="shape=tableRow;horizontal=0;startSize=0;swimlaneHead=0;swimlaneBody=0;fillColor=none;collapsible=0;dropTarget=0;points=[[0,0.5],[1,0.5]];portConstraint=eastwest;top=0;left=0;right=0;bottom=0;" parent="F4zQujOyoh7R0P-sWK7r-209" vertex="1"><mxGeometry y="450" width="210" height="30" as="geometry"/></mxCell><mxCell id="F4zQujOyoh7R0P-sWK7r-253" value="" style="shape=partialRectangle;connectable=0;fillColor=none;top=0;left=0;bottom=0;right=0;editable=1;overflow=hidden;" parent="F4zQujOyoh7R0P-sWK7r-252" vertex="1"><mxGeometry width="30" height="30" as="geometry"><mxRectangle width="30" height="30" as="alternateBounds"/></mxGeometry></mxCell><mxCell id="F4zQujOyoh7R0P-sWK7r-254" value="created_at" style="shape=partialRectangle;connectable=0;fillColor=none;top=0;left=0;bottom=0;right=0;align=left;spacingLeft=6;overflow=hidden;" parent="F4zQujOyoh7R0P-sWK7r-252" vertex="1"><mxGeometry x="30" width="180" height="30" as="geometry"><mxRectangle width="180" height="30" as="alternateBounds"/></mxGeometry></mxCell><mxCell id="F4zQujOyoh7R0P-sWK7r-255" value="" style="shape=tableRow;horizontal=0;startSize=0;swimlaneHead=0;swimlaneBody=0;fillColor=none;collapsible=0;dropTarget=0;points=[[0,0.5],[1,0.5]];portConstraint=eastwest;top=0;left=0;right=0;bottom=0;" parent="F4zQujOyoh7R0P-sWK7r-209" vertex="1"><mxGeometry y="480" width="210" height="30" as="geometry"/></mxCell><mxCell id="F4zQujOyoh7R0P-sWK7r-256" value="" style="shape=partialRectangle;connectable=0;fillColor=none;top=0;left=0;bottom=0;right=0;editable=1;overflow=hidden;" parent="F4zQujOyoh7R0P-sWK7r-255" vertex="1"><mxGeometry width="30" height="30" as="geometry"><mxRectangle width="30" height="30" as="alternateBounds"/></mxGeometry></mxCell><mxCell id="F4zQujOyoh7R0P-sWK7r-257" value="updated_at" style="shape=partialRectangle;connectable=0;fillColor=none;top=0;left=0;bottom=0;right=0;align=left;spacingLeft=6;overflow=hidden;" parent="F4zQujOyoh7R0P-sWK7r-255" vertex="1"><mxGeometry x="30" width="180" height="30" as="geometry"><mxRectangle width="180" height="30" as="alternateBounds"/></mxGeometry></mxCell><mxCell id="F4zQujOyoh7R0P-sWK7r-307" value="order_metadata" style="shape=table;startSize=30;container=1;collapsible=1;childLayout=tableLayout;fixedRows=1;rowLines=0;fontStyle=1;align=center;resizeLast=1;" parent="1" vertex="1"><mxGeometry x="150" y="850" width="180" height="250" as="geometry"/></mxCell><mxCell id="F4zQujOyoh7R0P-sWK7r-308" value="" style="shape=tableRow;horizontal=0;startSize=0;swimlaneHead=0;swimlaneBody=0;fillColor=none;collapsible=0;dropTarget=0;points=[[0,0.5],[1,0.5]];portConstraint=eastwest;top=0;left=0;right=0;bottom=1;" parent="F4zQujOyoh7R0P-sWK7r-307" vertex="1"><mxGeometry y="30" width="180" height="30" as="geometry"/></mxCell><mxCell id="F4zQujOyoh7R0P-sWK7r-309" value="PK" style="shape=partialRectangle;connectable=0;fillColor=none;top=0;left=0;bottom=0;right=0;fontStyle=1;overflow=hidden;" parent="F4zQujOyoh7R0P-sWK7r-308" vertex="1"><mxGeometry width="30" height="30" as="geometry"><mxRectangle width="30" height="30" as="alternateBounds"/></mxGeometry></mxCell><mxCell id="F4zQujOyoh7R0P-sWK7r-310" value="id" style="shape=partialRectangle;connectable=0;fillColor=none;top=0;left=0;bottom=0;right=0;align=left;spacingLeft=6;fontStyle=5;overflow=hidden;" parent="F4zQujOyoh7R0P-sWK7r-308" vertex="1"><mxGeometry x="30" width="150" height="30" as="geometry"><mxRectangle width="150" height="30" as="alternateBounds"/></mxGeometry></mxCell><mxCell id="F4zQujOyoh7R0P-sWK7r-311" value="" style="shape=tableRow;horizontal=0;startSize=0;swimlaneHead=0;swimlaneBody=0;fillColor=none;collapsible=0;dropTarget=0;points=[[0,0.5],[1,0.5]];portConstraint=eastwest;top=0;left=0;right=0;bottom=0;" parent="F4zQujOyoh7R0P-sWK7r-307" vertex="1"><mxGeometry y="60" width="180" height="30" as="geometry"/></mxCell><mxCell id="F4zQujOyoh7R0P-sWK7r-312" value="UK" style="shape=partialRectangle;connectable=0;fillColor=none;top=0;left=0;bottom=0;right=0;editable=1;overflow=hidden;" parent="F4zQujOyoh7R0P-sWK7r-311" vertex="1"><mxGeometry width="30" height="30" as="geometry"><mxRectangle width="30" height="30" as="alternateBounds"/></mxGeometry></mxCell><mxCell id="F4zQujOyoh7R0P-sWK7r-313" value="order_id" style="shape=partialRectangle;connectable=0;fillColor=none;top=0;left=0;bottom=0;right=0;align=left;spacingLeft=6;overflow=hidden;" parent="F4zQujOyoh7R0P-sWK7r-311" vertex="1"><mxGeometry x="30" width="150" height="30" as="geometry"><mxRectangle width="150" height="30" as="alternateBounds"/></mxGeometry></mxCell><mxCell id="F4zQujOyoh7R0P-sWK7r-314" value="" style="shape=tableRow;horizontal=0;startSize=0;swimlaneHead=0;swimlaneBody=0;fillColor=none;collapsible=0;dropTarget=0;points=[[0,0.5],[1,0.5]];portConstraint=eastwest;top=0;left=0;right=0;bottom=0;" parent="F4zQujOyoh7R0P-sWK7r-307" vertex="1"><mxGeometry y="90" width="180" height="30" as="geometry"/></mxCell><mxCell id="F4zQujOyoh7R0P-sWK7r-315" value="" style="shape=partialRectangle;connectable=0;fillColor=none;top=0;left=0;bottom=0;right=0;editable=1;overflow=hidden;" parent="F4zQujOyoh7R0P-sWK7r-314" vertex="1"><mxGeometry width="30" height="30" as="geometry"><mxRectangle width="30" height="30" as="alternateBounds"/></mxGeometry></mxCell><mxCell id="F4zQujOyoh7R0P-sWK7r-316" value="order_channel" style="shape=partialRectangle;connectable=0;fillColor=none;top=0;left=0;bottom=0;right=0;align=left;spacingLeft=6;overflow=hidden;" parent="F4zQujOyoh7R0P-sWK7r-314" vertex="1"><mxGeometry x="30" width="150" height="30" as="geometry"><mxRectangle width="150" height="30" as="alternateBounds"/></mxGeometry></mxCell><mxCell id="F4zQujOyoh7R0P-sWK7r-317" value="" style="shape=tableRow;horizontal=0;startSize=0;swimlaneHead=0;swimlaneBody=0;fillColor=none;collapsible=0;dropTarget=0;points=[[0,0.5],[1,0.5]];portConstraint=eastwest;top=0;left=0;right=0;bottom=0;" parent="F4zQujOyoh7R0P-sWK7r-307" vertex="1"><mxGeometry y="120" width="180" height="30" as="geometry"/></mxCell><mxCell id="F4zQujOyoh7R0P-sWK7r-318" value="" style="shape=partialRectangle;connectable=0;fillColor=none;top=0;left=0;bottom=0;right=0;editable=1;overflow=hidden;" parent="F4zQujOyoh7R0P-sWK7r-317" vertex="1"><mxGeometry width="30" height="30" as="geometry"><mxRectangle width="30" height="30" as="alternateBounds"/></mxGeometry></mxCell><mxCell id="F4zQujOyoh7R0P-sWK7r-319" value="metadata json" style="shape=partialRectangle;connectable=0;fillColor=none;top=0;left=0;bottom=0;right=0;align=left;spacingLeft=6;overflow=hidden;" parent="F4zQujOyoh7R0P-sWK7r-317" vertex="1"><mxGeometry x="30" width="150" height="30" as="geometry"><mxRectangle width="150" height="30" as="alternateBounds"/></mxGeometry></mxCell><mxCell id="F4zQujOyoh7R0P-sWK7r-320" value="" style="shape=tableRow;horizontal=0;startSize=0;swimlaneHead=0;swimlaneBody=0;fillColor=none;collapsible=0;dropTarget=0;points=[[0,0.5],[1,0.5]];portConstraint=eastwest;top=0;left=0;right=0;bottom=0;" parent="F4zQujOyoh7R0P-sWK7r-307" vertex="1"><mxGeometry y="150" width="180" height="30" as="geometry"/></mxCell><mxCell id="F4zQujOyoh7R0P-sWK7r-321" value="" style="shape=partialRectangle;connectable=0;fillColor=none;top=0;left=0;bottom=0;right=0;editable=1;overflow=hidden;" parent="F4zQujOyoh7R0P-sWK7r-320" vertex="1"><mxGeometry width="30" height="30" as="geometry"><mxRectangle width="30" height="30" as="alternateBounds"/></mxGeometry></mxCell><mxCell id="F4zQujOyoh7R0P-sWK7r-322" value="is_deleted" style="shape=partialRectangle;connectable=0;fillColor=none;top=0;left=0;bottom=0;right=0;align=left;spacingLeft=6;overflow=hidden;" parent="F4zQujOyoh7R0P-sWK7r-320" vertex="1"><mxGeometry x="30" width="150" height="30" as="geometry"><mxRectangle width="150" height="30" as="alternateBounds"/></mxGeometry></mxCell><mxCell id="F4zQujOyoh7R0P-sWK7r-323" value="" style="shape=tableRow;horizontal=0;startSize=0;swimlaneHead=0;swimlaneBody=0;fillColor=none;collapsible=0;dropTarget=0;points=[[0,0.5],[1,0.5]];portConstraint=eastwest;top=0;left=0;right=0;bottom=0;" parent="F4zQujOyoh7R0P-sWK7r-307" vertex="1"><mxGeometry y="180" width="180" height="30" as="geometry"/></mxCell><mxCell id="F4zQujOyoh7R0P-sWK7r-324" value="" style="shape=partialRectangle;connectable=0;fillColor=none;top=0;left=0;bottom=0;right=0;editable=1;overflow=hidden;" parent="F4zQujOyoh7R0P-sWK7r-323" vertex="1"><mxGeometry width="30" height="30" as="geometry"><mxRectangle width="30" height="30" as="alternateBounds"/></mxGeometry></mxCell><mxCell id="F4zQujOyoh7R0P-sWK7r-325" value="created_at" style="shape=partialRectangle;connectable=0;fillColor=none;top=0;left=0;bottom=0;right=0;align=left;spacingLeft=6;overflow=hidden;" parent="F4zQujOyoh7R0P-sWK7r-323" vertex="1"><mxGeometry x="30" width="150" height="30" as="geometry"><mxRectangle width="150" height="30" as="alternateBounds"/></mxGeometry></mxCell><mxCell id="F4zQujOyoh7R0P-sWK7r-326" value="" style="shape=tableRow;horizontal=0;startSize=0;swimlaneHead=0;swimlaneBody=0;fillColor=none;collapsible=0;dropTarget=0;points=[[0,0.5],[1,0.5]];portConstraint=eastwest;top=0;left=0;right=0;bottom=0;" parent="F4zQujOyoh7R0P-sWK7r-307" vertex="1"><mxGeometry y="210" width="180" height="30" as="geometry"/></mxCell><mxCell id="F4zQujOyoh7R0P-sWK7r-327" value="" style="shape=partialRectangle;connectable=0;fillColor=none;top=0;left=0;bottom=0;right=0;editable=1;overflow=hidden;" parent="F4zQujOyoh7R0P-sWK7r-326" vertex="1"><mxGeometry width="30" height="30" as="geometry"><mxRectangle width="30" height="30" as="alternateBounds"/></mxGeometry></mxCell><mxCell id="F4zQujOyoh7R0P-sWK7r-328" value="updated_at" style="shape=partialRectangle;connectable=0;fillColor=none;top=0;left=0;bottom=0;right=0;align=left;spacingLeft=6;overflow=hidden;" parent="F4zQujOyoh7R0P-sWK7r-326" vertex="1"><mxGeometry x="30" width="150" height="30" as="geometry"><mxRectangle width="150" height="30" as="alternateBounds"/></mxGeometry></mxCell><mxCell id="F4zQujOyoh7R0P-sWK7r-340" value="subscription_payment" style="shape=table;startSize=30;container=1;collapsible=1;childLayout=tableLayout;fixedRows=1;rowLines=0;fontStyle=1;align=center;resizeLast=1;" parent="1" vertex="1"><mxGeometry x="-480" y="640" width="180" height="430" as="geometry"/></mxCell><mxCell id="F4zQujOyoh7R0P-sWK7r-341" value="" style="shape=tableRow;horizontal=0;startSize=0;swimlaneHead=0;swimlaneBody=0;fillColor=none;collapsible=0;dropTarget=0;points=[[0,0.5],[1,0.5]];portConstraint=eastwest;top=0;left=0;right=0;bottom=1;" parent="F4zQujOyoh7R0P-sWK7r-340" vertex="1"><mxGeometry y="30" width="180" height="30" as="geometry"/></mxCell><mxCell id="F4zQujOyoh7R0P-sWK7r-342" value="PK" style="shape=partialRectangle;connectable=0;fillColor=none;top=0;left=0;bottom=0;right=0;fontStyle=1;overflow=hidden;" parent="F4zQujOyoh7R0P-sWK7r-341" vertex="1"><mxGeometry width="30" height="30" as="geometry"><mxRectangle width="30" height="30" as="alternateBounds"/></mxGeometry></mxCell><mxCell id="F4zQujOyoh7R0P-sWK7r-343" value="id" style="shape=partialRectangle;connectable=0;fillColor=none;top=0;left=0;bottom=0;right=0;align=left;spacingLeft=6;fontStyle=5;overflow=hidden;" parent="F4zQujOyoh7R0P-sWK7r-341" vertex="1"><mxGeometry x="30" width="150" height="30" as="geometry"><mxRectangle width="150" height="30" as="alternateBounds"/></mxGeometry></mxCell><mxCell id="F4zQujOyoh7R0P-sWK7r-344" value="" style="shape=tableRow;horizontal=0;startSize=0;swimlaneHead=0;swimlaneBody=0;fillColor=none;collapsible=0;dropTarget=0;points=[[0,0.5],[1,0.5]];portConstraint=eastwest;top=0;left=0;right=0;bottom=0;" parent="F4zQujOyoh7R0P-sWK7r-340" vertex="1"><mxGeometry y="60" width="180" height="30" as="geometry"/></mxCell><mxCell id="F4zQujOyoh7R0P-sWK7r-345" value="K" style="shape=partialRectangle;connectable=0;fillColor=none;top=0;left=0;bottom=0;right=0;editable=1;overflow=hidden;" parent="F4zQujOyoh7R0P-sWK7r-344" vertex="1"><mxGeometry width="30" height="30" as="geometry"><mxRectangle width="30" height="30" as="alternateBounds"/></mxGeometry></mxCell><mxCell id="F4zQujOyoh7R0P-sWK7r-346" value="space_id" style="shape=partialRectangle;connectable=0;fillColor=none;top=0;left=0;bottom=0;right=0;align=left;spacingLeft=6;overflow=hidden;" parent="F4zQujOyoh7R0P-sWK7r-344" vertex="1"><mxGeometry x="30" width="150" height="30" as="geometry"><mxRectangle width="150" height="30" as="alternateBounds"/></mxGeometry></mxCell><mxCell id="F4zQujOyoh7R0P-sWK7r-347" value="" style="shape=tableRow;horizontal=0;startSize=0;swimlaneHead=0;swimlaneBody=0;fillColor=none;collapsible=0;dropTarget=0;points=[[0,0.5],[1,0.5]];portConstraint=eastwest;top=0;left=0;right=0;bottom=0;" parent="F4zQujOyoh7R0P-sWK7r-340" vertex="1"><mxGeometry y="90" width="180" height="30" as="geometry"/></mxCell><mxCell id="F4zQujOyoh7R0P-sWK7r-348" value="" style="shape=partialRectangle;connectable=0;fillColor=none;top=0;left=0;bottom=0;right=0;editable=1;overflow=hidden;" parent="F4zQujOyoh7R0P-sWK7r-347" vertex="1"><mxGeometry width="30" height="30" as="geometry"><mxRectangle width="30" height="30" as="alternateBounds"/></mxGeometry></mxCell><mxCell id="F4zQujOyoh7R0P-sWK7r-349" value="state" style="shape=partialRectangle;connectable=0;fillColor=none;top=0;left=0;bottom=0;right=0;align=left;spacingLeft=6;overflow=hidden;" parent="F4zQujOyoh7R0P-sWK7r-347" vertex="1"><mxGeometry x="30" width="150" height="30" as="geometry"><mxRectangle width="150" height="30" as="alternateBounds"/></mxGeometry></mxCell><mxCell id="F4zQujOyoh7R0P-sWK7r-350" value="" style="shape=tableRow;horizontal=0;startSize=0;swimlaneHead=0;swimlaneBody=0;fillColor=none;collapsible=0;dropTarget=0;points=[[0,0.5],[1,0.5]];portConstraint=eastwest;top=0;left=0;right=0;bottom=0;" parent="F4zQujOyoh7R0P-sWK7r-340" vertex="1"><mxGeometry y="120" width="180" height="30" as="geometry"/></mxCell><mxCell id="F4zQujOyoh7R0P-sWK7r-351" value="" style="shape=partialRectangle;connectable=0;fillColor=none;top=0;left=0;bottom=0;right=0;editable=1;overflow=hidden;" parent="F4zQujOyoh7R0P-sWK7r-350" vertex="1"><mxGeometry width="30" height="30" as="geometry"><mxRectangle width="30" height="30" as="alternateBounds"/></mxGeometry></mxCell><mxCell id="F4zQujOyoh7R0P-sWK7r-352" value="order_id" style="shape=partialRectangle;connectable=0;fillColor=none;top=0;left=0;bottom=0;right=0;align=left;spacingLeft=6;overflow=hidden;" parent="F4zQujOyoh7R0P-sWK7r-350" vertex="1"><mxGeometry x="30" width="150" height="30" as="geometry"><mxRectangle width="150" height="30" as="alternateBounds"/></mxGeometry></mxCell><mxCell id="F4zQujOyoh7R0P-sWK7r-353" value="" style="shape=tableRow;horizontal=0;startSize=0;swimlaneHead=0;swimlaneBody=0;fillColor=none;collapsible=0;dropTarget=0;points=[[0,0.5],[1,0.5]];portConstraint=eastwest;top=0;left=0;right=0;bottom=0;" parent="F4zQujOyoh7R0P-sWK7r-340" vertex="1"><mxGeometry y="150" width="180" height="30" as="geometry"/></mxCell><mxCell id="F4zQujOyoh7R0P-sWK7r-354" value="" style="shape=partialRectangle;connectable=0;fillColor=none;top=0;left=0;bottom=0;right=0;editable=1;overflow=hidden;" parent="F4zQujOyoh7R0P-sWK7r-353" vertex="1"><mxGeometry width="30" height="30" as="geometry"><mxRectangle width="30" height="30" as="alternateBounds"/></mxGeometry></mxCell><mxCell id="F4zQujOyoh7R0P-sWK7r-355" value="order_type" style="shape=partialRectangle;connectable=0;fillColor=none;top=0;left=0;bottom=0;right=0;align=left;spacingLeft=6;overflow=hidden;" parent="F4zQujOyoh7R0P-sWK7r-353" vertex="1"><mxGeometry x="30" width="150" height="30" as="geometry"><mxRectangle width="150" height="30" as="alternateBounds"/></mxGeometry></mxCell><mxCell id="F4zQujOyoh7R0P-sWK7r-356" value="" style="shape=tableRow;horizontal=0;startSize=0;swimlaneHead=0;swimlaneBody=0;fillColor=none;collapsible=0;dropTarget=0;points=[[0,0.5],[1,0.5]];portConstraint=eastwest;top=0;left=0;right=0;bottom=0;" parent="F4zQujOyoh7R0P-sWK7r-340" vertex="1"><mxGeometry y="180" width="180" height="30" as="geometry"/></mxCell><mxCell id="F4zQujOyoh7R0P-sWK7r-357" value="" style="shape=partialRectangle;connectable=0;fillColor=none;top=0;left=0;bottom=0;right=0;editable=1;overflow=hidden;" parent="F4zQujOyoh7R0P-sWK7r-356" vertex="1"><mxGeometry width="30" height="30" as="geometry"><mxRectangle width="30" height="30" as="alternateBounds"/></mxGeometry></mxCell><mxCell id="F4zQujOyoh7R0P-sWK7r-358" value="subscription_id" style="shape=partialRectangle;connectable=0;fillColor=none;top=0;left=0;bottom=0;right=0;align=left;spacingLeft=6;overflow=hidden;" parent="F4zQujOyoh7R0P-sWK7r-356" vertex="1"><mxGeometry x="30" width="150" height="30" as="geometry"><mxRectangle width="150" height="30" as="alternateBounds"/></mxGeometry></mxCell><mxCell id="F4zQujOyoh7R0P-sWK7r-359" value="" style="shape=tableRow;horizontal=0;startSize=0;swimlaneHead=0;swimlaneBody=0;fillColor=none;collapsible=0;dropTarget=0;points=[[0,0.5],[1,0.5]];portConstraint=eastwest;top=0;left=0;right=0;bottom=0;" parent="F4zQujOyoh7R0P-sWK7r-340" vertex="1"><mxGeometry y="210" width="180" height="30" as="geometry"/></mxCell><mxCell id="F4zQujOyoh7R0P-sWK7r-360" value="" style="shape=partialRectangle;connectable=0;fillColor=none;top=0;left=0;bottom=0;right=0;editable=1;overflow=hidden;" parent="F4zQujOyoh7R0P-sWK7r-359" vertex="1"><mxGeometry width="30" height="30" as="geometry"><mxRectangle width="30" height="30" as="alternateBounds"/></mxGeometry></mxCell><mxCell id="F4zQujOyoh7R0P-sWK7r-361" value="subscription_type" style="shape=partialRectangle;connectable=0;fillColor=none;top=0;left=0;bottom=0;right=0;align=left;spacingLeft=6;overflow=hidden;" parent="F4zQujOyoh7R0P-sWK7r-359" vertex="1"><mxGeometry x="30" width="150" height="30" as="geometry"><mxRectangle width="150" height="30" as="alternateBounds"/></mxGeometry></mxCell><mxCell id="F4zQujOyoh7R0P-sWK7r-362" value="" style="shape=tableRow;horizontal=0;startSize=0;swimlaneHead=0;swimlaneBody=0;fillColor=none;collapsible=0;dropTarget=0;points=[[0,0.5],[1,0.5]];portConstraint=eastwest;top=0;left=0;right=0;bottom=0;" parent="F4zQujOyoh7R0P-sWK7r-340" vertex="1"><mxGeometry y="240" width="180" height="30" as="geometry"/></mxCell><mxCell id="F4zQujOyoh7R0P-sWK7r-363" value="" style="shape=partialRectangle;connectable=0;fillColor=none;top=0;left=0;bottom=0;right=0;editable=1;overflow=hidden;" parent="F4zQujOyoh7R0P-sWK7r-362" vertex="1"><mxGeometry width="30" height="30" as="geometry"><mxRectangle width="30" height="30" as="alternateBounds"/></mxGeometry></mxCell><mxCell id="F4zQujOyoh7R0P-sWK7r-364" value="open_at" style="shape=partialRectangle;connectable=0;fillColor=none;top=0;left=0;bottom=0;right=0;align=left;spacingLeft=6;overflow=hidden;" parent="F4zQujOyoh7R0P-sWK7r-362" vertex="1"><mxGeometry x="30" width="150" height="30" as="geometry"><mxRectangle width="150" height="30" as="alternateBounds"/></mxGeometry></mxCell><mxCell id="F4zQujOyoh7R0P-sWK7r-365" value="" style="shape=tableRow;horizontal=0;startSize=0;swimlaneHead=0;swimlaneBody=0;fillColor=none;collapsible=0;dropTarget=0;points=[[0,0.5],[1,0.5]];portConstraint=eastwest;top=0;left=0;right=0;bottom=0;" parent="F4zQujOyoh7R0P-sWK7r-340" vertex="1"><mxGeometry y="270" width="180" height="30" as="geometry"/></mxCell><mxCell id="F4zQujOyoh7R0P-sWK7r-366" value="" style="shape=partialRectangle;connectable=0;fillColor=none;top=0;left=0;bottom=0;right=0;editable=1;overflow=hidden;" parent="F4zQujOyoh7R0P-sWK7r-365" vertex="1"><mxGeometry width="30" height="30" as="geometry"><mxRectangle width="30" height="30" as="alternateBounds"/></mxGeometry></mxCell><mxCell id="F4zQujOyoh7R0P-sWK7r-367" value="paid_at" style="shape=partialRectangle;connectable=0;fillColor=none;top=0;left=0;bottom=0;right=0;align=left;spacingLeft=6;overflow=hidden;" parent="F4zQujOyoh7R0P-sWK7r-365" vertex="1"><mxGeometry x="30" width="150" height="30" as="geometry"><mxRectangle width="150" height="30" as="alternateBounds"/></mxGeometry></mxCell><mxCell id="F4zQujOyoh7R0P-sWK7r-368" value="" style="shape=tableRow;horizontal=0;startSize=0;swimlaneHead=0;swimlaneBody=0;fillColor=none;collapsible=0;dropTarget=0;points=[[0,0.5],[1,0.5]];portConstraint=eastwest;top=0;left=0;right=0;bottom=0;" parent="F4zQujOyoh7R0P-sWK7r-340" vertex="1"><mxGeometry y="300" width="180" height="30" as="geometry"/></mxCell><mxCell id="F4zQujOyoh7R0P-sWK7r-369" value="" style="shape=partialRectangle;connectable=0;fillColor=none;top=0;left=0;bottom=0;right=0;editable=1;overflow=hidden;" parent="F4zQujOyoh7R0P-sWK7r-368" vertex="1"><mxGeometry width="30" height="30" as="geometry"><mxRectangle width="30" height="30" as="alternateBounds"/></mxGeometry></mxCell><mxCell id="F4zQujOyoh7R0P-sWK7r-370" value="uncollectible_at" style="shape=partialRectangle;connectable=0;fillColor=none;top=0;left=0;bottom=0;right=0;align=left;spacingLeft=6;overflow=hidden;" parent="F4zQujOyoh7R0P-sWK7r-368" vertex="1"><mxGeometry x="30" width="150" height="30" as="geometry"><mxRectangle width="150" height="30" as="alternateBounds"/></mxGeometry></mxCell><mxCell id="F4zQujOyoh7R0P-sWK7r-371" value="" style="shape=tableRow;horizontal=0;startSize=0;swimlaneHead=0;swimlaneBody=0;fillColor=none;collapsible=0;dropTarget=0;points=[[0,0.5],[1,0.5]];portConstraint=eastwest;top=0;left=0;right=0;bottom=0;" parent="F4zQujOyoh7R0P-sWK7r-340" vertex="1"><mxGeometry y="330" width="180" height="30" as="geometry"/></mxCell><mxCell id="F4zQujOyoh7R0P-sWK7r-372" value="" style="shape=partialRectangle;connectable=0;fillColor=none;top=0;left=0;bottom=0;right=0;editable=1;overflow=hidden;" parent="F4zQujOyoh7R0P-sWK7r-371" vertex="1"><mxGeometry width="30" height="30" as="geometry"><mxRectangle width="30" height="30" as="alternateBounds"/></mxGeometry></mxCell><mxCell id="F4zQujOyoh7R0P-sWK7r-373" value="void_at" style="shape=partialRectangle;connectable=0;fillColor=none;top=0;left=0;bottom=0;right=0;align=left;spacingLeft=6;overflow=hidden;" parent="F4zQujOyoh7R0P-sWK7r-371" vertex="1"><mxGeometry x="30" width="150" height="30" as="geometry"><mxRectangle width="150" height="30" as="alternateBounds"/></mxGeometry></mxCell><mxCell id="F4zQujOyoh7R0P-sWK7r-374" value="" style="shape=tableRow;horizontal=0;startSize=0;swimlaneHead=0;swimlaneBody=0;fillColor=none;collapsible=0;dropTarget=0;points=[[0,0.5],[1,0.5]];portConstraint=eastwest;top=0;left=0;right=0;bottom=0;" parent="F4zQujOyoh7R0P-sWK7r-340" vertex="1"><mxGeometry y="360" width="180" height="30" as="geometry"/></mxCell><mxCell id="F4zQujOyoh7R0P-sWK7r-375" value="" style="shape=partialRectangle;connectable=0;fillColor=none;top=0;left=0;bottom=0;right=0;editable=1;overflow=hidden;" parent="F4zQujOyoh7R0P-sWK7r-374" vertex="1"><mxGeometry width="30" height="30" as="geometry"><mxRectangle width="30" height="30" as="alternateBounds"/></mxGeometry></mxCell><mxCell id="F4zQujOyoh7R0P-sWK7r-376" value="created_at" style="shape=partialRectangle;connectable=0;fillColor=none;top=0;left=0;bottom=0;right=0;align=left;spacingLeft=6;overflow=hidden;" parent="F4zQujOyoh7R0P-sWK7r-374" vertex="1"><mxGeometry x="30" width="150" height="30" as="geometry"><mxRectangle width="150" height="30" as="alternateBounds"/></mxGeometry></mxCell><mxCell id="F4zQujOyoh7R0P-sWK7r-377" value="" style="shape=tableRow;horizontal=0;startSize=0;swimlaneHead=0;swimlaneBody=0;fillColor=none;collapsible=0;dropTarget=0;points=[[0,0.5],[1,0.5]];portConstraint=eastwest;top=0;left=0;right=0;bottom=0;" parent="F4zQujOyoh7R0P-sWK7r-340" vertex="1"><mxGeometry y="390" width="180" height="30" as="geometry"/></mxCell><mxCell id="F4zQujOyoh7R0P-sWK7r-378" value="" style="shape=partialRectangle;connectable=0;fillColor=none;top=0;left=0;bottom=0;right=0;editable=1;overflow=hidden;" parent="F4zQujOyoh7R0P-sWK7r-377" vertex="1"><mxGeometry width="30" height="30" as="geometry"><mxRectangle width="30" height="30" as="alternateBounds"/></mxGeometry></mxCell><mxCell id="F4zQujOyoh7R0P-sWK7r-379" value="updated_at" style="shape=partialRectangle;connectable=0;fillColor=none;top=0;left=0;bottom=0;right=0;align=left;spacingLeft=6;overflow=hidden;" parent="F4zQujOyoh7R0P-sWK7r-377" vertex="1"><mxGeometry x="30" width="150" height="30" as="geometry"><mxRectangle width="150" height="30" as="alternateBounds"/></mxGeometry></mxCell><mxCell id="F4zQujOyoh7R0P-sWK7r-380" value="subscription_payment_item" style="shape=table;startSize=30;container=1;collapsible=1;childLayout=tableLayout;fixedRows=1;rowLines=0;fontStyle=1;align=center;resizeLast=1;" parent="1" vertex="1"><mxGeometry x="-260" y="660" width="190" height="370" as="geometry"/></mxCell><mxCell id="F4zQujOyoh7R0P-sWK7r-381" value="" style="shape=tableRow;horizontal=0;startSize=0;swimlaneHead=0;swimlaneBody=0;fillColor=none;collapsible=0;dropTarget=0;points=[[0,0.5],[1,0.5]];portConstraint=eastwest;top=0;left=0;right=0;bottom=1;" parent="F4zQujOyoh7R0P-sWK7r-380" vertex="1"><mxGeometry y="30" width="190" height="30" as="geometry"/></mxCell><mxCell id="F4zQujOyoh7R0P-sWK7r-382" value="PK" style="shape=partialRectangle;connectable=0;fillColor=none;top=0;left=0;bottom=0;right=0;fontStyle=1;overflow=hidden;" parent="F4zQujOyoh7R0P-sWK7r-381" vertex="1"><mxGeometry width="30" height="30" as="geometry"><mxRectangle width="30" height="30" as="alternateBounds"/></mxGeometry></mxCell><mxCell id="F4zQujOyoh7R0P-sWK7r-383" value="id" style="shape=partialRectangle;connectable=0;fillColor=none;top=0;left=0;bottom=0;right=0;align=left;spacingLeft=6;fontStyle=5;overflow=hidden;" parent="F4zQujOyoh7R0P-sWK7r-381" vertex="1"><mxGeometry x="30" width="160" height="30" as="geometry"><mxRectangle width="160" height="30" as="alternateBounds"/></mxGeometry></mxCell><mxCell id="F4zQujOyoh7R0P-sWK7r-384" value="" style="shape=tableRow;horizontal=0;startSize=0;swimlaneHead=0;swimlaneBody=0;fillColor=none;collapsible=0;dropTarget=0;points=[[0,0.5],[1,0.5]];portConstraint=eastwest;top=0;left=0;right=0;bottom=0;" parent="F4zQujOyoh7R0P-sWK7r-380" vertex="1"><mxGeometry y="60" width="190" height="30" as="geometry"/></mxCell><mxCell id="F4zQujOyoh7R0P-sWK7r-385" value="K" style="shape=partialRectangle;connectable=0;fillColor=none;top=0;left=0;bottom=0;right=0;editable=1;overflow=hidden;" parent="F4zQujOyoh7R0P-sWK7r-384" vertex="1"><mxGeometry width="30" height="30" as="geometry"><mxRectangle width="30" height="30" as="alternateBounds"/></mxGeometry></mxCell><mxCell id="F4zQujOyoh7R0P-sWK7r-386" value="space_id" style="shape=partialRectangle;connectable=0;fillColor=none;top=0;left=0;bottom=0;right=0;align=left;spacingLeft=6;overflow=hidden;" parent="F4zQujOyoh7R0P-sWK7r-384" vertex="1"><mxGeometry x="30" width="160" height="30" as="geometry"><mxRectangle width="160" height="30" as="alternateBounds"/></mxGeometry></mxCell><mxCell id="F4zQujOyoh7R0P-sWK7r-387" value="" style="shape=tableRow;horizontal=0;startSize=0;swimlaneHead=0;swimlaneBody=0;fillColor=none;collapsible=0;dropTarget=0;points=[[0,0.5],[1,0.5]];portConstraint=eastwest;top=0;left=0;right=0;bottom=0;" parent="F4zQujOyoh7R0P-sWK7r-380" vertex="1"><mxGeometry y="90" width="190" height="30" as="geometry"/></mxCell><mxCell id="F4zQujOyoh7R0P-sWK7r-388" value="K" style="shape=partialRectangle;connectable=0;fillColor=none;top=0;left=0;bottom=0;right=0;editable=1;overflow=hidden;" parent="F4zQujOyoh7R0P-sWK7r-387" vertex="1"><mxGeometry width="30" height="30" as="geometry"><mxRectangle width="30" height="30" as="alternateBounds"/></mxGeometry></mxCell><mxCell id="F4zQujOyoh7R0P-sWK7r-389" value="payment_id" style="shape=partialRectangle;connectable=0;fillColor=none;top=0;left=0;bottom=0;right=0;align=left;spacingLeft=6;overflow=hidden;" parent="F4zQujOyoh7R0P-sWK7r-387" vertex="1"><mxGeometry x="30" width="160" height="30" as="geometry"><mxRectangle width="160" height="30" as="alternateBounds"/></mxGeometry></mxCell><mxCell id="F4zQujOyoh7R0P-sWK7r-390" value="" style="shape=tableRow;horizontal=0;startSize=0;swimlaneHead=0;swimlaneBody=0;fillColor=none;collapsible=0;dropTarget=0;points=[[0,0.5],[1,0.5]];portConstraint=eastwest;top=0;left=0;right=0;bottom=0;" parent="F4zQujOyoh7R0P-sWK7r-380" vertex="1"><mxGeometry y="120" width="190" height="30" as="geometry"/></mxCell><mxCell id="F4zQujOyoh7R0P-sWK7r-391" value="" style="shape=partialRectangle;connectable=0;fillColor=none;top=0;left=0;bottom=0;right=0;editable=1;overflow=hidden;" parent="F4zQujOyoh7R0P-sWK7r-390" vertex="1"><mxGeometry width="30" height="30" as="geometry"><mxRectangle width="30" height="30" as="alternateBounds"/></mxGeometry></mxCell><mxCell id="F4zQujOyoh7R0P-sWK7r-392" value="subscription_id" style="shape=partialRectangle;connectable=0;fillColor=none;top=0;left=0;bottom=0;right=0;align=left;spacingLeft=6;overflow=hidden;" parent="F4zQujOyoh7R0P-sWK7r-390" vertex="1"><mxGeometry x="30" width="160" height="30" as="geometry"><mxRectangle width="160" height="30" as="alternateBounds"/></mxGeometry></mxCell><mxCell id="F4zQujOyoh7R0P-sWK7r-393" value="" style="shape=tableRow;horizontal=0;startSize=0;swimlaneHead=0;swimlaneBody=0;fillColor=none;collapsible=0;dropTarget=0;points=[[0,0.5],[1,0.5]];portConstraint=eastwest;top=0;left=0;right=0;bottom=0;" parent="F4zQujOyoh7R0P-sWK7r-380" vertex="1"><mxGeometry y="150" width="190" height="30" as="geometry"/></mxCell><mxCell id="F4zQujOyoh7R0P-sWK7r-394" value="" style="shape=partialRectangle;connectable=0;fillColor=none;top=0;left=0;bottom=0;right=0;editable=1;overflow=hidden;" parent="F4zQujOyoh7R0P-sWK7r-393" vertex="1"><mxGeometry width="30" height="30" as="geometry"><mxRectangle width="30" height="30" as="alternateBounds"/></mxGeometry></mxCell><mxCell id="F4zQujOyoh7R0P-sWK7r-395" value="subscription_type" style="shape=partialRectangle;connectable=0;fillColor=none;top=0;left=0;bottom=0;right=0;align=left;spacingLeft=6;overflow=hidden;" parent="F4zQujOyoh7R0P-sWK7r-393" vertex="1"><mxGeometry x="30" width="160" height="30" as="geometry"><mxRectangle width="160" height="30" as="alternateBounds"/></mxGeometry></mxCell><mxCell id="F4zQujOyoh7R0P-sWK7r-396" value="" style="shape=tableRow;horizontal=0;startSize=0;swimlaneHead=0;swimlaneBody=0;fillColor=none;collapsible=0;dropTarget=0;points=[[0,0.5],[1,0.5]];portConstraint=eastwest;top=0;left=0;right=0;bottom=0;" parent="F4zQujOyoh7R0P-sWK7r-380" vertex="1"><mxGeometry y="180" width="190" height="30" as="geometry"/></mxCell><mxCell id="F4zQujOyoh7R0P-sWK7r-397" value="" style="shape=partialRectangle;connectable=0;fillColor=none;top=0;left=0;bottom=0;right=0;editable=1;overflow=hidden;" parent="F4zQujOyoh7R0P-sWK7r-396" vertex="1"><mxGeometry width="30" height="30" as="geometry"><mxRectangle width="30" height="30" as="alternateBounds"/></mxGeometry></mxCell><mxCell id="F4zQujOyoh7R0P-sWK7r-398" value="amount" style="shape=partialRectangle;connectable=0;fillColor=none;top=0;left=0;bottom=0;right=0;align=left;spacingLeft=6;overflow=hidden;" parent="F4zQujOyoh7R0P-sWK7r-396" vertex="1"><mxGeometry x="30" width="160" height="30" as="geometry"><mxRectangle width="160" height="30" as="alternateBounds"/></mxGeometry></mxCell><mxCell id="F4zQujOyoh7R0P-sWK7r-399" value="" style="shape=tableRow;horizontal=0;startSize=0;swimlaneHead=0;swimlaneBody=0;fillColor=none;collapsible=0;dropTarget=0;points=[[0,0.5],[1,0.5]];portConstraint=eastwest;top=0;left=0;right=0;bottom=0;" parent="F4zQujOyoh7R0P-sWK7r-380" vertex="1"><mxGeometry y="210" width="190" height="30" as="geometry"/></mxCell><mxCell id="F4zQujOyoh7R0P-sWK7r-400" value="" style="shape=partialRectangle;connectable=0;fillColor=none;top=0;left=0;bottom=0;right=0;editable=1;overflow=hidden;" parent="F4zQujOyoh7R0P-sWK7r-399" vertex="1"><mxGeometry width="30" height="30" as="geometry"><mxRectangle width="30" height="30" as="alternateBounds"/></mxGeometry></mxCell><mxCell id="F4zQujOyoh7R0P-sWK7r-401" value="proration" style="shape=partialRectangle;connectable=0;fillColor=none;top=0;left=0;bottom=0;right=0;align=left;spacingLeft=6;overflow=hidden;" parent="F4zQujOyoh7R0P-sWK7r-399" vertex="1"><mxGeometry x="30" width="160" height="30" as="geometry"><mxRectangle width="160" height="30" as="alternateBounds"/></mxGeometry></mxCell><mxCell id="F4zQujOyoh7R0P-sWK7r-402" value="" style="shape=tableRow;horizontal=0;startSize=0;swimlaneHead=0;swimlaneBody=0;fillColor=none;collapsible=0;dropTarget=0;points=[[0,0.5],[1,0.5]];portConstraint=eastwest;top=0;left=0;right=0;bottom=0;" parent="F4zQujOyoh7R0P-sWK7r-380" vertex="1"><mxGeometry y="240" width="190" height="30" as="geometry"/></mxCell><mxCell id="F4zQujOyoh7R0P-sWK7r-403" value="" style="shape=partialRectangle;connectable=0;fillColor=none;top=0;left=0;bottom=0;right=0;editable=1;overflow=hidden;" parent="F4zQujOyoh7R0P-sWK7r-402" vertex="1"><mxGeometry width="30" height="30" as="geometry"><mxRectangle width="30" height="30" as="alternateBounds"/></mxGeometry></mxCell><mxCell id="F4zQujOyoh7R0P-sWK7r-404" value="start_date" style="shape=partialRectangle;connectable=0;fillColor=none;top=0;left=0;bottom=0;right=0;align=left;spacingLeft=6;overflow=hidden;" parent="F4zQujOyoh7R0P-sWK7r-402" vertex="1"><mxGeometry x="30" width="160" height="30" as="geometry"><mxRectangle width="160" height="30" as="alternateBounds"/></mxGeometry></mxCell><mxCell id="F4zQujOyoh7R0P-sWK7r-405" value="" style="shape=tableRow;horizontal=0;startSize=0;swimlaneHead=0;swimlaneBody=0;fillColor=none;collapsible=0;dropTarget=0;points=[[0,0.5],[1,0.5]];portConstraint=eastwest;top=0;left=0;right=0;bottom=0;" parent="F4zQujOyoh7R0P-sWK7r-380" vertex="1"><mxGeometry y="270" width="190" height="30" as="geometry"/></mxCell><mxCell id="F4zQujOyoh7R0P-sWK7r-406" value="" style="shape=partialRectangle;connectable=0;fillColor=none;top=0;left=0;bottom=0;right=0;editable=1;overflow=hidden;" parent="F4zQujOyoh7R0P-sWK7r-405" vertex="1"><mxGeometry width="30" height="30" as="geometry"><mxRectangle width="30" height="30" as="alternateBounds"/></mxGeometry></mxCell><mxCell id="F4zQujOyoh7R0P-sWK7r-407" value="end_date" style="shape=partialRectangle;connectable=0;fillColor=none;top=0;left=0;bottom=0;right=0;align=left;spacingLeft=6;overflow=hidden;" parent="F4zQujOyoh7R0P-sWK7r-405" vertex="1"><mxGeometry x="30" width="160" height="30" as="geometry"><mxRectangle width="160" height="30" as="alternateBounds"/></mxGeometry></mxCell><mxCell id="F4zQujOyoh7R0P-sWK7r-408" value="" style="shape=tableRow;horizontal=0;startSize=0;swimlaneHead=0;swimlaneBody=0;fillColor=none;collapsible=0;dropTarget=0;points=[[0,0.5],[1,0.5]];portConstraint=eastwest;top=0;left=0;right=0;bottom=0;" parent="F4zQujOyoh7R0P-sWK7r-380" vertex="1"><mxGeometry y="300" width="190" height="30" as="geometry"/></mxCell><mxCell id="F4zQujOyoh7R0P-sWK7r-409" value="" style="shape=partialRectangle;connectable=0;fillColor=none;top=0;left=0;bottom=0;right=0;editable=1;overflow=hidden;" parent="F4zQujOyoh7R0P-sWK7r-408" vertex="1"><mxGeometry width="30" height="30" as="geometry"><mxRectangle width="30" height="30" as="alternateBounds"/></mxGeometry></mxCell><mxCell id="F4zQujOyoh7R0P-sWK7r-410" value="created_at" style="shape=partialRectangle;connectable=0;fillColor=none;top=0;left=0;bottom=0;right=0;align=left;spacingLeft=6;overflow=hidden;" parent="F4zQujOyoh7R0P-sWK7r-408" vertex="1"><mxGeometry x="30" width="160" height="30" as="geometry"><mxRectangle width="160" height="30" as="alternateBounds"/></mxGeometry></mxCell><mxCell id="F4zQujOyoh7R0P-sWK7r-411" value="" style="shape=tableRow;horizontal=0;startSize=0;swimlaneHead=0;swimlaneBody=0;fillColor=none;collapsible=0;dropTarget=0;points=[[0,0.5],[1,0.5]];portConstraint=eastwest;top=0;left=0;right=0;bottom=0;" parent="F4zQujOyoh7R0P-sWK7r-380" vertex="1"><mxGeometry y="330" width="190" height="30" as="geometry"/></mxCell><mxCell id="F4zQujOyoh7R0P-sWK7r-412" value="" style="shape=partialRectangle;connectable=0;fillColor=none;top=0;left=0;bottom=0;right=0;editable=1;overflow=hidden;" parent="F4zQujOyoh7R0P-sWK7r-411" vertex="1"><mxGeometry width="30" height="30" as="geometry"><mxRectangle width="30" height="30" as="alternateBounds"/></mxGeometry></mxCell><mxCell id="F4zQujOyoh7R0P-sWK7r-413" value="updated_at" style="shape=partialRectangle;connectable=0;fillColor=none;top=0;left=0;bottom=0;right=0;align=left;spacingLeft=6;overflow=hidden;" parent="F4zQujOyoh7R0P-sWK7r-411" vertex="1"><mxGeometry x="30" width="160" height="30" as="geometry"><mxRectangle width="160" height="30" as="alternateBounds"/></mxGeometry></mxCell><mxCell id="F4zQujOyoh7R0P-sWK7r-414" value="subscription" style="shape=table;startSize=30;container=1;collapsible=1;childLayout=tableLayout;fixedRows=1;rowLines=0;fontStyle=1;align=center;resizeLast=1;" parent="1" vertex="1"><mxGeometry x="-240" y="-230" width="180" height="520" as="geometry"/></mxCell><mxCell id="F4zQujOyoh7R0P-sWK7r-415" value="" style="shape=tableRow;horizontal=0;startSize=0;swimlaneHead=0;swimlaneBody=0;fillColor=none;collapsible=0;dropTarget=0;points=[[0,0.5],[1,0.5]];portConstraint=eastwest;top=0;left=0;right=0;bottom=1;" parent="F4zQujOyoh7R0P-sWK7r-414" vertex="1"><mxGeometry y="30" width="180" height="30" as="geometry"/></mxCell><mxCell id="F4zQujOyoh7R0P-sWK7r-416" value="PK" style="shape=partialRectangle;connectable=0;fillColor=none;top=0;left=0;bottom=0;right=0;fontStyle=1;overflow=hidden;" parent="F4zQujOyoh7R0P-sWK7r-415" vertex="1"><mxGeometry width="30" height="30" as="geometry"><mxRectangle width="30" height="30" as="alternateBounds"/></mxGeometry></mxCell><mxCell id="F4zQujOyoh7R0P-sWK7r-417" value="id" style="shape=partialRectangle;connectable=0;fillColor=none;top=0;left=0;bottom=0;right=0;align=left;spacingLeft=6;fontStyle=5;overflow=hidden;" parent="F4zQujOyoh7R0P-sWK7r-415" vertex="1"><mxGeometry x="30" width="150" height="30" as="geometry"><mxRectangle width="150" height="30" as="alternateBounds"/></mxGeometry></mxCell><mxCell id="F4zQujOyoh7R0P-sWK7r-418" value="" style="shape=tableRow;horizontal=0;startSize=0;swimlaneHead=0;swimlaneBody=0;fillColor=none;collapsible=0;dropTarget=0;points=[[0,0.5],[1,0.5]];portConstraint=eastwest;top=0;left=0;right=0;bottom=0;" parent="F4zQujOyoh7R0P-sWK7r-414" vertex="1"><mxGeometry y="60" width="180" height="30" as="geometry"/></mxCell><mxCell id="F4zQujOyoh7R0P-sWK7r-419" value="" style="shape=partialRectangle;connectable=0;fillColor=none;top=0;left=0;bottom=0;right=0;editable=1;overflow=hidden;" parent="F4zQujOyoh7R0P-sWK7r-418" vertex="1"><mxGeometry width="30" height="30" as="geometry"><mxRectangle width="30" height="30" as="alternateBounds"/></mxGeometry></mxCell><mxCell id="F4zQujOyoh7R0P-sWK7r-420" value="space_id" style="shape=partialRectangle;connectable=0;fillColor=none;top=0;left=0;bottom=0;right=0;align=left;spacingLeft=6;overflow=hidden;" parent="F4zQujOyoh7R0P-sWK7r-418" vertex="1"><mxGeometry x="30" width="150" height="30" as="geometry"><mxRectangle width="150" height="30" as="alternateBounds"/></mxGeometry></mxCell><mxCell id="6EP8Lx5cC8tgFNHVOdCp-155" value="" style="shape=tableRow;horizontal=0;startSize=0;swimlaneHead=0;swimlaneBody=0;fillColor=none;collapsible=0;dropTarget=0;points=[[0,0.5],[1,0.5]];portConstraint=eastwest;top=0;left=0;right=0;bottom=0;" parent="F4zQujOyoh7R0P-sWK7r-414" vertex="1"><mxGeometry y="90" width="180" height="30" as="geometry"/></mxCell><mxCell id="6EP8Lx5cC8tgFNHVOdCp-156" value="" style="shape=partialRectangle;connectable=0;fillColor=none;top=0;left=0;bottom=0;right=0;editable=1;overflow=hidden;" parent="6EP8Lx5cC8tgFNHVOdCp-155" vertex="1"><mxGeometry width="30" height="30" as="geometry"><mxRectangle width="30" height="30" as="alternateBounds"/></mxGeometry></mxCell><mxCell id="6EP8Lx5cC8tgFNHVOdCp-157" value="bundle_id" style="shape=partialRectangle;connectable=0;fillColor=none;top=0;left=0;bottom=0;right=0;align=left;spacingLeft=6;overflow=hidden;" parent="6EP8Lx5cC8tgFNHVOdCp-155" vertex="1"><mxGeometry x="30" width="150" height="30" as="geometry"><mxRectangle width="150" height="30" as="alternateBounds"/></mxGeometry></mxCell><mxCell id="6EP8Lx5cC8tgFNHVOdCp-158" value="" style="shape=tableRow;horizontal=0;startSize=0;swimlaneHead=0;swimlaneBody=0;fillColor=none;collapsible=0;dropTarget=0;points=[[0,0.5],[1,0.5]];portConstraint=eastwest;top=0;left=0;right=0;bottom=0;" parent="F4zQujOyoh7R0P-sWK7r-414" vertex="1"><mxGeometry y="120" width="180" height="30" as="geometry"/></mxCell><mxCell id="6EP8Lx5cC8tgFNHVOdCp-159" value="" style="shape=partialRectangle;connectable=0;fillColor=none;top=0;left=0;bottom=0;right=0;editable=1;overflow=hidden;" parent="6EP8Lx5cC8tgFNHVOdCp-158" vertex="1"><mxGeometry width="30" height="30" as="geometry"><mxRectangle width="30" height="30" as="alternateBounds"/></mxGeometry></mxCell><mxCell id="6EP8Lx5cC8tgFNHVOdCp-160" value="subscription_id" style="shape=partialRectangle;connectable=0;fillColor=none;top=0;left=0;bottom=0;right=0;align=left;spacingLeft=6;overflow=hidden;" parent="6EP8Lx5cC8tgFNHVOdCp-158" vertex="1"><mxGeometry x="30" width="150" height="30" as="geometry"><mxRectangle width="150" height="30" as="alternateBounds"/></mxGeometry></mxCell><mxCell id="6EP8Lx5cC8tgFNHVOdCp-161" value="" style="shape=tableRow;horizontal=0;startSize=0;swimlaneHead=0;swimlaneBody=0;fillColor=none;collapsible=0;dropTarget=0;points=[[0,0.5],[1,0.5]];portConstraint=eastwest;top=0;left=0;right=0;bottom=0;" parent="F4zQujOyoh7R0P-sWK7r-414" vertex="1"><mxGeometry y="150" width="180" height="30" as="geometry"/></mxCell><mxCell id="6EP8Lx5cC8tgFNHVOdCp-162" value="" style="shape=partialRectangle;connectable=0;fillColor=none;top=0;left=0;bottom=0;right=0;editable=1;overflow=hidden;" parent="6EP8Lx5cC8tgFNHVOdCp-161" vertex="1"><mxGeometry width="30" height="30" as="geometry"><mxRectangle width="30" height="30" as="alternateBounds"/></mxGeometry></mxCell><mxCell id="6EP8Lx5cC8tgFNHVOdCp-163" value="product_name" style="shape=partialRectangle;connectable=0;fillColor=none;top=0;left=0;bottom=0;right=0;align=left;spacingLeft=6;overflow=hidden;" parent="6EP8Lx5cC8tgFNHVOdCp-161" vertex="1"><mxGeometry x="30" width="150" height="30" as="geometry"><mxRectangle width="150" height="30" as="alternateBounds"/></mxGeometry></mxCell><mxCell id="6EP8Lx5cC8tgFNHVOdCp-164" value="" style="shape=tableRow;horizontal=0;startSize=0;swimlaneHead=0;swimlaneBody=0;fillColor=none;collapsible=0;dropTarget=0;points=[[0,0.5],[1,0.5]];portConstraint=eastwest;top=0;left=0;right=0;bottom=0;" parent="F4zQujOyoh7R0P-sWK7r-414" vertex="1"><mxGeometry y="180" width="180" height="30" as="geometry"/></mxCell><mxCell id="6EP8Lx5cC8tgFNHVOdCp-165" value="" style="shape=partialRectangle;connectable=0;fillColor=none;top=0;left=0;bottom=0;right=0;editable=1;overflow=hidden;" parent="6EP8Lx5cC8tgFNHVOdCp-164" vertex="1"><mxGeometry width="30" height="30" as="geometry"><mxRectangle width="30" height="30" as="alternateBounds"/></mxGeometry></mxCell><mxCell id="6EP8Lx5cC8tgFNHVOdCp-166" value="product_category" style="shape=partialRectangle;connectable=0;fillColor=none;top=0;left=0;bottom=0;right=0;align=left;spacingLeft=6;overflow=hidden;" parent="6EP8Lx5cC8tgFNHVOdCp-164" vertex="1"><mxGeometry x="30" width="150" height="30" as="geometry"><mxRectangle width="150" height="30" as="alternateBounds"/></mxGeometry></mxCell><mxCell id="F4zQujOyoh7R0P-sWK7r-421" value="" style="shape=tableRow;horizontal=0;startSize=0;swimlaneHead=0;swimlaneBody=0;fillColor=none;collapsible=0;dropTarget=0;points=[[0,0.5],[1,0.5]];portConstraint=eastwest;top=0;left=0;right=0;bottom=0;" parent="F4zQujOyoh7R0P-sWK7r-414" vertex="1"><mxGeometry y="210" width="180" height="30" as="geometry"/></mxCell><mxCell id="F4zQujOyoh7R0P-sWK7r-422" value="" style="shape=partialRectangle;connectable=0;fillColor=none;top=0;left=0;bottom=0;right=0;editable=1;overflow=hidden;" parent="F4zQujOyoh7R0P-sWK7r-421" vertex="1"><mxGeometry width="30" height="30" as="geometry"><mxRectangle width="30" height="30" as="alternateBounds"/></mxGeometry></mxCell><mxCell id="F4zQujOyoh7R0P-sWK7r-423" value="plan_id" style="shape=partialRectangle;connectable=0;fillColor=none;top=0;left=0;bottom=0;right=0;align=left;spacingLeft=6;overflow=hidden;" parent="F4zQujOyoh7R0P-sWK7r-421" vertex="1"><mxGeometry x="30" width="150" height="30" as="geometry"><mxRectangle width="150" height="30" as="alternateBounds"/></mxGeometry></mxCell><mxCell id="6EP8Lx5cC8tgFNHVOdCp-170" value="" style="shape=tableRow;horizontal=0;startSize=0;swimlaneHead=0;swimlaneBody=0;fillColor=none;collapsible=0;dropTarget=0;points=[[0,0.5],[1,0.5]];portConstraint=eastwest;top=0;left=0;right=0;bottom=0;" parent="F4zQujOyoh7R0P-sWK7r-414" vertex="1"><mxGeometry y="240" width="180" height="30" as="geometry"/></mxCell><mxCell id="6EP8Lx5cC8tgFNHVOdCp-171" value="" style="shape=partialRectangle;connectable=0;fillColor=none;top=0;left=0;bottom=0;right=0;editable=1;overflow=hidden;" parent="6EP8Lx5cC8tgFNHVOdCp-170" vertex="1"><mxGeometry width="30" height="30" as="geometry"><mxRectangle width="30" height="30" as="alternateBounds"/></mxGeometry></mxCell><mxCell id="6EP8Lx5cC8tgFNHVOdCp-172" value="bundle_start_date" style="shape=partialRectangle;connectable=0;fillColor=none;top=0;left=0;bottom=0;right=0;align=left;spacingLeft=6;overflow=hidden;" parent="6EP8Lx5cC8tgFNHVOdCp-170" vertex="1"><mxGeometry x="30" width="150" height="30" as="geometry"><mxRectangle width="150" height="30" as="alternateBounds"/></mxGeometry></mxCell><mxCell id="F4zQujOyoh7R0P-sWK7r-424" value="" style="shape=tableRow;horizontal=0;startSize=0;swimlaneHead=0;swimlaneBody=0;fillColor=none;collapsible=0;dropTarget=0;points=[[0,0.5],[1,0.5]];portConstraint=eastwest;top=0;left=0;right=0;bottom=0;" parent="F4zQujOyoh7R0P-sWK7r-414" vertex="1"><mxGeometry y="270" width="180" height="30" as="geometry"/></mxCell><mxCell id="F4zQujOyoh7R0P-sWK7r-425" value="" style="shape=partialRectangle;connectable=0;fillColor=none;top=0;left=0;bottom=0;right=0;editable=1;overflow=hidden;" parent="F4zQujOyoh7R0P-sWK7r-424" vertex="1"><mxGeometry width="30" height="30" as="geometry"><mxRectangle width="30" height="30" as="alternateBounds"/></mxGeometry></mxCell><mxCell id="F4zQujOyoh7R0P-sWK7r-426" value="start_date" style="shape=partialRectangle;connectable=0;fillColor=none;top=0;left=0;bottom=0;right=0;align=left;spacingLeft=6;overflow=hidden;" parent="F4zQujOyoh7R0P-sWK7r-424" vertex="1"><mxGeometry x="30" width="150" height="30" as="geometry"><mxRectangle width="150" height="30" as="alternateBounds"/></mxGeometry></mxCell><mxCell id="F4zQujOyoh7R0P-sWK7r-427" value="" style="shape=tableRow;horizontal=0;startSize=0;swimlaneHead=0;swimlaneBody=0;fillColor=none;collapsible=0;dropTarget=0;points=[[0,0.5],[1,0.5]];portConstraint=eastwest;top=0;left=0;right=0;bottom=0;" parent="F4zQujOyoh7R0P-sWK7r-414" vertex="1"><mxGeometry y="300" width="180" height="30" as="geometry"/></mxCell><mxCell id="F4zQujOyoh7R0P-sWK7r-428" value="" style="shape=partialRectangle;connectable=0;fillColor=none;top=0;left=0;bottom=0;right=0;editable=1;overflow=hidden;" parent="F4zQujOyoh7R0P-sWK7r-427" vertex="1"><mxGeometry width="30" height="30" as="geometry"><mxRectangle width="30" height="30" as="alternateBounds"/></mxGeometry></mxCell><mxCell id="F4zQujOyoh7R0P-sWK7r-429" value="expire_date" style="shape=partialRectangle;connectable=0;fillColor=none;top=0;left=0;bottom=0;right=0;align=left;spacingLeft=6;overflow=hidden;" parent="F4zQujOyoh7R0P-sWK7r-427" vertex="1"><mxGeometry x="30" width="150" height="30" as="geometry"><mxRectangle width="150" height="30" as="alternateBounds"/></mxGeometry></mxCell><mxCell id="111" value="" style="shape=tableRow;horizontal=0;startSize=0;swimlaneHead=0;swimlaneBody=0;fillColor=none;collapsible=0;dropTarget=0;points=[[0,0.5],[1,0.5]];portConstraint=eastwest;top=0;left=0;right=0;bottom=0;" parent="F4zQujOyoh7R0P-sWK7r-414" vertex="1"><mxGeometry y="330" width="180" height="30" as="geometry"/></mxCell><mxCell id="112" value="" style="shape=partialRectangle;connectable=0;fillColor=none;top=0;left=0;bottom=0;right=0;editable=1;overflow=hidden;" parent="111" vertex="1"><mxGeometry width="30" height="30" as="geometry"><mxRectangle width="30" height="30" as="alternateBounds"/></mxGeometry></mxCell><mxCell id="113" value="state" style="shape=partialRectangle;connectable=0;fillColor=none;top=0;left=0;bottom=0;right=0;align=left;spacingLeft=6;overflow=hidden;" parent="111" vertex="1"><mxGeometry x="30" width="150" height="30" as="geometry"><mxRectangle width="150" height="30" as="alternateBounds"/></mxGeometry></mxCell><mxCell id="F4zQujOyoh7R0P-sWK7r-430" value="" style="shape=tableRow;horizontal=0;startSize=0;swimlaneHead=0;swimlaneBody=0;fillColor=none;collapsible=0;dropTarget=0;points=[[0,0.5],[1,0.5]];portConstraint=eastwest;top=0;left=0;right=0;bottom=0;" parent="F4zQujOyoh7R0P-sWK7r-414" vertex="1"><mxGeometry y="360" width="180" height="30" as="geometry"/></mxCell><mxCell id="F4zQujOyoh7R0P-sWK7r-431" value="" style="shape=partialRectangle;connectable=0;fillColor=none;top=0;left=0;bottom=0;right=0;editable=1;overflow=hidden;" parent="F4zQujOyoh7R0P-sWK7r-430" vertex="1"><mxGeometry width="30" height="30" as="geometry"><mxRectangle width="30" height="30" as="alternateBounds"/></mxGeometry></mxCell><mxCell id="F4zQujOyoh7R0P-sWK7r-432" value="is_deleted" style="shape=partialRectangle;connectable=0;fillColor=none;top=0;left=0;bottom=0;right=0;align=left;spacingLeft=6;overflow=hidden;" parent="F4zQujOyoh7R0P-sWK7r-430" vertex="1"><mxGeometry x="30" width="150" height="30" as="geometry"><mxRectangle width="150" height="30" as="alternateBounds"/></mxGeometry></mxCell><mxCell id="F4zQujOyoh7R0P-sWK7r-433" value="" style="shape=tableRow;horizontal=0;startSize=0;swimlaneHead=0;swimlaneBody=0;fillColor=none;collapsible=0;dropTarget=0;points=[[0,0.5],[1,0.5]];portConstraint=eastwest;top=0;left=0;right=0;bottom=0;" parent="F4zQujOyoh7R0P-sWK7r-414" vertex="1"><mxGeometry y="390" width="180" height="30" as="geometry"/></mxCell><mxCell id="F4zQujOyoh7R0P-sWK7r-434" value="" style="shape=partialRectangle;connectable=0;fillColor=none;top=0;left=0;bottom=0;right=0;editable=1;overflow=hidden;" parent="F4zQujOyoh7R0P-sWK7r-433" vertex="1"><mxGeometry width="30" height="30" as="geometry"><mxRectangle width="30" height="30" as="alternateBounds"/></mxGeometry></mxCell><mxCell id="F4zQujOyoh7R0P-sWK7r-435" value="created_by" style="shape=partialRectangle;connectable=0;fillColor=none;top=0;left=0;bottom=0;right=0;align=left;spacingLeft=6;overflow=hidden;" parent="F4zQujOyoh7R0P-sWK7r-433" vertex="1"><mxGeometry x="30" width="150" height="30" as="geometry"><mxRectangle width="150" height="30" as="alternateBounds"/></mxGeometry></mxCell><mxCell id="F4zQujOyoh7R0P-sWK7r-436" value="" style="shape=tableRow;horizontal=0;startSize=0;swimlaneHead=0;swimlaneBody=0;fillColor=none;collapsible=0;dropTarget=0;points=[[0,0.5],[1,0.5]];portConstraint=eastwest;top=0;left=0;right=0;bottom=0;" parent="F4zQujOyoh7R0P-sWK7r-414" vertex="1"><mxGeometry y="420" width="180" height="30" as="geometry"/></mxCell><mxCell id="F4zQujOyoh7R0P-sWK7r-437" value="" style="shape=partialRectangle;connectable=0;fillColor=none;top=0;left=0;bottom=0;right=0;editable=1;overflow=hidden;" parent="F4zQujOyoh7R0P-sWK7r-436" vertex="1"><mxGeometry width="30" height="30" as="geometry"><mxRectangle width="30" height="30" as="alternateBounds"/></mxGeometry></mxCell><mxCell id="F4zQujOyoh7R0P-sWK7r-438" value="created_at" style="shape=partialRectangle;connectable=0;fillColor=none;top=0;left=0;bottom=0;right=0;align=left;spacingLeft=6;overflow=hidden;" parent="F4zQujOyoh7R0P-sWK7r-436" vertex="1"><mxGeometry x="30" width="150" height="30" as="geometry"><mxRectangle width="150" height="30" as="alternateBounds"/></mxGeometry></mxCell><mxCell id="F4zQujOyoh7R0P-sWK7r-439" value="" style="shape=tableRow;horizontal=0;startSize=0;swimlaneHead=0;swimlaneBody=0;fillColor=none;collapsible=0;dropTarget=0;points=[[0,0.5],[1,0.5]];portConstraint=eastwest;top=0;left=0;right=0;bottom=0;" parent="F4zQujOyoh7R0P-sWK7r-414" vertex="1"><mxGeometry y="450" width="180" height="30" as="geometry"/></mxCell><mxCell id="F4zQujOyoh7R0P-sWK7r-440" value="" style="shape=partialRectangle;connectable=0;fillColor=none;top=0;left=0;bottom=0;right=0;editable=1;overflow=hidden;" parent="F4zQujOyoh7R0P-sWK7r-439" vertex="1"><mxGeometry width="30" height="30" as="geometry"><mxRectangle width="30" height="30" as="alternateBounds"/></mxGeometry></mxCell><mxCell id="F4zQujOyoh7R0P-sWK7r-441" value="updated_by" style="shape=partialRectangle;connectable=0;fillColor=none;top=0;left=0;bottom=0;right=0;align=left;spacingLeft=6;overflow=hidden;" parent="F4zQujOyoh7R0P-sWK7r-439" vertex="1"><mxGeometry x="30" width="150" height="30" as="geometry"><mxRectangle width="150" height="30" as="alternateBounds"/></mxGeometry></mxCell><mxCell id="F4zQujOyoh7R0P-sWK7r-442" value="" style="shape=tableRow;horizontal=0;startSize=0;swimlaneHead=0;swimlaneBody=0;fillColor=none;collapsible=0;dropTarget=0;points=[[0,0.5],[1,0.5]];portConstraint=eastwest;top=0;left=0;right=0;bottom=0;" parent="F4zQujOyoh7R0P-sWK7r-414" vertex="1"><mxGeometry y="480" width="180" height="30" as="geometry"/></mxCell><mxCell id="F4zQujOyoh7R0P-sWK7r-443" value="" style="shape=partialRectangle;connectable=0;fillColor=none;top=0;left=0;bottom=0;right=0;editable=1;overflow=hidden;" parent="F4zQujOyoh7R0P-sWK7r-442" vertex="1"><mxGeometry width="30" height="30" as="geometry"><mxRectangle width="30" height="30" as="alternateBounds"/></mxGeometry></mxCell><mxCell id="F4zQujOyoh7R0P-sWK7r-444" value="updated_at" style="shape=partialRectangle;connectable=0;fillColor=none;top=0;left=0;bottom=0;right=0;align=left;spacingLeft=6;overflow=hidden;" parent="F4zQujOyoh7R0P-sWK7r-442" vertex="1"><mxGeometry x="30" width="150" height="30" as="geometry"><mxRectangle width="150" height="30" as="alternateBounds"/></mxGeometry></mxCell><mxCell id="6EP8Lx5cC8tgFNHVOdCp-200" style="edgeStyle=orthogonalEdgeStyle;rounded=0;orthogonalLoop=1;jettySize=auto;html=1;entryX=0.75;entryY=0;entryDx=0;entryDy=0;fontSize=21;" parent="1" source="2" target="F4zQujOyoh7R0P-sWK7r-9" edge="1"><mxGeometry relative="1" as="geometry"><Array as="points"><mxPoint x="340" y="-40"/><mxPoint x="278" y="-40"/></Array></mxGeometry></mxCell><mxCell id="2" value="social_feishu_order" style="shape=table;startSize=30;container=1;collapsible=1;childLayout=tableLayout;fixedRows=1;rowLines=0;fontStyle=1;align=center;resizeLast=1;" parent="1" vertex="1"><mxGeometry x="250" y="-400" width="180" height="220" as="geometry"/></mxCell><mxCell id="3" value="" style="shape=partialRectangle;collapsible=0;dropTarget=0;pointerEvents=0;fillColor=none;top=0;left=0;bottom=1;right=0;points=[[0,0.5],[1,0.5]];portConstraint=eastwest;" parent="2" vertex="1"><mxGeometry y="30" width="180" height="30" as="geometry"/></mxCell><mxCell id="4" value="PK" style="shape=partialRectangle;connectable=0;fillColor=none;top=0;left=0;bottom=0;right=0;fontStyle=1;overflow=hidden;" parent="3" vertex="1"><mxGeometry width="30" height="30" as="geometry"><mxRectangle width="30" height="30" as="alternateBounds"/></mxGeometry></mxCell><mxCell id="5" value="id" style="shape=partialRectangle;connectable=0;fillColor=none;top=0;left=0;bottom=0;right=0;align=left;spacingLeft=6;fontStyle=5;overflow=hidden;" parent="3" vertex="1"><mxGeometry x="30" width="150" height="30" as="geometry"><mxRectangle width="150" height="30" as="alternateBounds"/></mxGeometry></mxCell><mxCell id="6" value="" style="shape=partialRectangle;collapsible=0;dropTarget=0;pointerEvents=0;fillColor=none;top=0;left=0;bottom=0;right=0;points=[[0,0.5],[1,0.5]];portConstraint=eastwest;" parent="2" vertex="1"><mxGeometry y="60" width="180" height="30" as="geometry"/></mxCell><mxCell id="7" value="" style="shape=partialRectangle;connectable=0;fillColor=none;top=0;left=0;bottom=0;right=0;editable=1;overflow=hidden;" parent="6" vertex="1"><mxGeometry width="30" height="30" as="geometry"><mxRectangle width="30" height="30" as="alternateBounds"/></mxGeometry></mxCell><mxCell id="8" value="app_id" style="shape=partialRectangle;connectable=0;fillColor=none;top=0;left=0;bottom=0;right=0;align=left;spacingLeft=6;overflow=hidden;" parent="6" vertex="1"><mxGeometry x="30" width="150" height="30" as="geometry"><mxRectangle width="150" height="30" as="alternateBounds"/></mxGeometry></mxCell><mxCell id="9" value="" style="shape=partialRectangle;collapsible=0;dropTarget=0;pointerEvents=0;fillColor=none;top=0;left=0;bottom=0;right=0;points=[[0,0.5],[1,0.5]];portConstraint=eastwest;" parent="2" vertex="1"><mxGeometry y="90" width="180" height="30" as="geometry"/></mxCell><mxCell id="10" value="" style="shape=partialRectangle;connectable=0;fillColor=none;top=0;left=0;bottom=0;right=0;editable=1;overflow=hidden;" parent="9" vertex="1"><mxGeometry width="30" height="30" as="geometry"><mxRectangle width="30" height="30" as="alternateBounds"/></mxGeometry></mxCell><mxCell id="11" value="tenant_id" style="shape=partialRectangle;connectable=0;fillColor=none;top=0;left=0;bottom=0;right=0;align=left;spacingLeft=6;overflow=hidden;" parent="9" vertex="1"><mxGeometry x="30" width="150" height="30" as="geometry"><mxRectangle width="150" height="30" as="alternateBounds"/></mxGeometry></mxCell><mxCell id="12" value="" style="shape=partialRectangle;collapsible=0;dropTarget=0;pointerEvents=0;fillColor=none;top=0;left=0;bottom=0;right=0;points=[[0,0.5],[1,0.5]];portConstraint=eastwest;" parent="2" vertex="1"><mxGeometry y="120" width="180" height="30" as="geometry"/></mxCell><mxCell id="13" value="" style="shape=partialRectangle;connectable=0;fillColor=none;top=0;left=0;bottom=0;right=0;editable=1;overflow=hidden;" parent="12" vertex="1"><mxGeometry width="30" height="30" as="geometry"><mxRectangle width="30" height="30" as="alternateBounds"/></mxGeometry></mxCell><mxCell id="14" value="order_data json" style="shape=partialRectangle;connectable=0;fillColor=none;top=0;left=0;bottom=0;right=0;align=left;spacingLeft=6;overflow=hidden;" parent="12" vertex="1"><mxGeometry x="30" width="150" height="30" as="geometry"><mxRectangle width="150" height="30" as="alternateBounds"/></mxGeometry></mxCell><mxCell id="47" value="" style="shape=partialRectangle;collapsible=0;dropTarget=0;pointerEvents=0;fillColor=none;top=0;left=0;bottom=0;right=0;points=[[0,0.5],[1,0.5]];portConstraint=eastwest;" parent="2" vertex="1"><mxGeometry y="150" width="180" height="30" as="geometry"/></mxCell><mxCell id="48" value="" style="shape=partialRectangle;connectable=0;fillColor=none;top=0;left=0;bottom=0;right=0;editable=1;overflow=hidden;" parent="47" vertex="1"><mxGeometry width="30" height="30" as="geometry"><mxRectangle width="30" height="30" as="alternateBounds"/></mxGeometry></mxCell><mxCell id="49" value="created_at" style="shape=partialRectangle;connectable=0;fillColor=none;top=0;left=0;bottom=0;right=0;align=left;spacingLeft=6;overflow=hidden;" parent="47" vertex="1"><mxGeometry x="30" width="150" height="30" as="geometry"><mxRectangle width="150" height="30" as="alternateBounds"/></mxGeometry></mxCell><mxCell id="50" value="" style="shape=partialRectangle;collapsible=0;dropTarget=0;pointerEvents=0;fillColor=none;top=0;left=0;bottom=0;right=0;points=[[0,0.5],[1,0.5]];portConstraint=eastwest;" parent="2" vertex="1"><mxGeometry y="180" width="180" height="30" as="geometry"/></mxCell><mxCell id="51" value="" style="shape=partialRectangle;connectable=0;fillColor=none;top=0;left=0;bottom=0;right=0;editable=1;overflow=hidden;" parent="50" vertex="1"><mxGeometry width="30" height="30" as="geometry"><mxRectangle width="30" height="30" as="alternateBounds"/></mxGeometry></mxCell><mxCell id="52" value="updated_at" style="shape=partialRectangle;connectable=0;fillColor=none;top=0;left=0;bottom=0;right=0;align=left;spacingLeft=6;overflow=hidden;" parent="50" vertex="1"><mxGeometry x="30" width="150" height="30" as="geometry"><mxRectangle width="150" height="30" as="alternateBounds"/></mxGeometry></mxCell><mxCell id="16" style="edgeStyle=orthogonalEdgeStyle;rounded=0;orthogonalLoop=1;jettySize=auto;html=1;exitX=1;exitY=0.5;exitDx=0;exitDy=0;" parent="1" source="F4zQujOyoh7R0P-sWK7r-16" target="F4zQujOyoh7R0P-sWK7r-100" edge="1"><mxGeometry relative="1" as="geometry"><Array as="points"><mxPoint x="400" y="355"/><mxPoint x="400" y="125"/></Array></mxGeometry></mxCell><mxCell id="19" style="edgeStyle=orthogonalEdgeStyle;rounded=0;orthogonalLoop=1;jettySize=auto;html=1;entryX=0;entryY=0.5;entryDx=0;entryDy=0;" parent="1" source="F4zQujOyoh7R0P-sWK7r-16" target="F4zQujOyoh7R0P-sWK7r-216" edge="1"><mxGeometry relative="1" as="geometry"><Array as="points"><mxPoint x="400" y="355"/><mxPoint x="400" y="685"/></Array></mxGeometry></mxCell><mxCell id="20" style="edgeStyle=orthogonalEdgeStyle;rounded=0;orthogonalLoop=1;jettySize=auto;html=1;" parent="1" source="F4zQujOyoh7R0P-sWK7r-16" target="F4zQujOyoh7R0P-sWK7r-311" edge="1"><mxGeometry relative="1" as="geometry"><Array as="points"><mxPoint x="60" y="355"/><mxPoint x="60" y="925"/></Array></mxGeometry></mxCell><mxCell id="6EP8Lx5cC8tgFNHVOdCp-201" style="edgeStyle=orthogonalEdgeStyle;rounded=0;orthogonalLoop=1;jettySize=auto;html=1;fontSize=21;entryX=0.75;entryY=0;entryDx=0;entryDy=0;" parent="1" source="21" target="F4zQujOyoh7R0P-sWK7r-9" edge="1"><mxGeometry relative="1" as="geometry"><Array as="points"><mxPoint x="580" y="-40"/><mxPoint x="278" y="-40"/></Array></mxGeometry></mxCell><mxCell id="21" value="social_dingtalk_order" style="shape=table;startSize=30;container=1;collapsible=1;childLayout=tableLayout;fixedRows=1;rowLines=0;fontStyle=1;align=center;resizeLast=1;" parent="1" vertex="1"><mxGeometry x="490" y="-310" width="180" height="220" as="geometry"/></mxCell><mxCell id="22" value="" style="shape=partialRectangle;collapsible=0;dropTarget=0;pointerEvents=0;fillColor=none;top=0;left=0;bottom=1;right=0;points=[[0,0.5],[1,0.5]];portConstraint=eastwest;" parent="21" vertex="1"><mxGeometry y="30" width="180" height="30" as="geometry"/></mxCell><mxCell id="23" value="PK" style="shape=partialRectangle;connectable=0;fillColor=none;top=0;left=0;bottom=0;right=0;fontStyle=1;overflow=hidden;" parent="22" vertex="1"><mxGeometry width="30" height="30" as="geometry"><mxRectangle width="30" height="30" as="alternateBounds"/></mxGeometry></mxCell><mxCell id="24" value="id" style="shape=partialRectangle;connectable=0;fillColor=none;top=0;left=0;bottom=0;right=0;align=left;spacingLeft=6;fontStyle=5;overflow=hidden;" parent="22" vertex="1"><mxGeometry x="30" width="150" height="30" as="geometry"><mxRectangle width="150" height="30" as="alternateBounds"/></mxGeometry></mxCell><mxCell id="25" value="" style="shape=partialRectangle;collapsible=0;dropTarget=0;pointerEvents=0;fillColor=none;top=0;left=0;bottom=0;right=0;points=[[0,0.5],[1,0.5]];portConstraint=eastwest;" parent="21" vertex="1"><mxGeometry y="60" width="180" height="30" as="geometry"/></mxCell><mxCell id="26" value="" style="shape=partialRectangle;connectable=0;fillColor=none;top=0;left=0;bottom=0;right=0;editable=1;overflow=hidden;" parent="25" vertex="1"><mxGeometry width="30" height="30" as="geometry"><mxRectangle width="30" height="30" as="alternateBounds"/></mxGeometry></mxCell><mxCell id="27" value="suite_id" style="shape=partialRectangle;connectable=0;fillColor=none;top=0;left=0;bottom=0;right=0;align=left;spacingLeft=6;overflow=hidden;" parent="25" vertex="1"><mxGeometry x="30" width="150" height="30" as="geometry"><mxRectangle width="150" height="30" as="alternateBounds"/></mxGeometry></mxCell><mxCell id="28" value="" style="shape=partialRectangle;collapsible=0;dropTarget=0;pointerEvents=0;fillColor=none;top=0;left=0;bottom=0;right=0;points=[[0,0.5],[1,0.5]];portConstraint=eastwest;" parent="21" vertex="1"><mxGeometry y="90" width="180" height="30" as="geometry"/></mxCell><mxCell id="29" value="" style="shape=partialRectangle;connectable=0;fillColor=none;top=0;left=0;bottom=0;right=0;editable=1;overflow=hidden;" parent="28" vertex="1"><mxGeometry width="30" height="30" as="geometry"><mxRectangle width="30" height="30" as="alternateBounds"/></mxGeometry></mxCell><mxCell id="30" value="corp_id" style="shape=partialRectangle;connectable=0;fillColor=none;top=0;left=0;bottom=0;right=0;align=left;spacingLeft=6;overflow=hidden;" parent="28" vertex="1"><mxGeometry x="30" width="150" height="30" as="geometry"><mxRectangle width="150" height="30" as="alternateBounds"/></mxGeometry></mxCell><mxCell id="31" value="" style="shape=partialRectangle;collapsible=0;dropTarget=0;pointerEvents=0;fillColor=none;top=0;left=0;bottom=0;right=0;points=[[0,0.5],[1,0.5]];portConstraint=eastwest;" parent="21" vertex="1"><mxGeometry y="120" width="180" height="30" as="geometry"/></mxCell><mxCell id="32" value="" style="shape=partialRectangle;connectable=0;fillColor=none;top=0;left=0;bottom=0;right=0;editable=1;overflow=hidden;" parent="31" vertex="1"><mxGeometry width="30" height="30" as="geometry"><mxRectangle width="30" height="30" as="alternateBounds"/></mxGeometry></mxCell><mxCell id="33" value="order_id" style="shape=partialRectangle;connectable=0;fillColor=none;top=0;left=0;bottom=0;right=0;align=left;spacingLeft=6;overflow=hidden;" parent="31" vertex="1"><mxGeometry x="30" width="150" height="30" as="geometry"><mxRectangle width="150" height="30" as="alternateBounds"/></mxGeometry></mxCell><mxCell id="108" value="" style="shape=partialRectangle;collapsible=0;dropTarget=0;pointerEvents=0;fillColor=none;top=0;left=0;bottom=0;right=0;points=[[0,0.5],[1,0.5]];portConstraint=eastwest;" parent="21" vertex="1"><mxGeometry y="150" width="180" height="30" as="geometry"/></mxCell><mxCell id="109" value="" style="shape=partialRectangle;connectable=0;fillColor=none;top=0;left=0;bottom=0;right=0;editable=1;overflow=hidden;" parent="108" vertex="1"><mxGeometry width="30" height="30" as="geometry"><mxRectangle width="30" height="30" as="alternateBounds"/></mxGeometry></mxCell><mxCell id="110" value="goods_code" style="shape=partialRectangle;connectable=0;fillColor=none;top=0;left=0;bottom=0;right=0;align=left;spacingLeft=6;overflow=hidden;" parent="108" vertex="1"><mxGeometry x="30" width="150" height="30" as="geometry"><mxRectangle width="150" height="30" as="alternateBounds"/></mxGeometry></mxCell><mxCell id="114" value="" style="shape=partialRectangle;collapsible=0;dropTarget=0;pointerEvents=0;fillColor=none;top=0;left=0;bottom=0;right=0;points=[[0,0.5],[1,0.5]];portConstraint=eastwest;" parent="21" vertex="1"><mxGeometry y="180" width="180" height="30" as="geometry"/></mxCell><mxCell id="115" value="" style="shape=partialRectangle;connectable=0;fillColor=none;top=0;left=0;bottom=0;right=0;editable=1;overflow=hidden;" parent="114" vertex="1"><mxGeometry width="30" height="30" as="geometry"><mxRectangle width="30" height="30" as="alternateBounds"/></mxGeometry></mxCell><mxCell id="116" value="......." style="shape=partialRectangle;connectable=0;fillColor=none;top=0;left=0;bottom=0;right=0;align=left;spacingLeft=6;overflow=hidden;" parent="114" vertex="1"><mxGeometry x="30" width="150" height="30" as="geometry"><mxRectangle width="150" height="30" as="alternateBounds"/></mxGeometry></mxCell><mxCell id="6EP8Lx5cC8tgFNHVOdCp-199" style="edgeStyle=orthogonalEdgeStyle;rounded=0;orthogonalLoop=1;jettySize=auto;html=1;entryX=0.75;entryY=0;entryDx=0;entryDy=0;fontSize=21;exitX=1.011;exitY=-0.167;exitDx=0;exitDy=0;exitPerimeter=0;" parent="1" source="71" target="F4zQujOyoh7R0P-sWK7r-9" edge="1"><mxGeometry relative="1" as="geometry"/></mxCell><mxCell id="34" value="social_wecom_order" style="shape=table;startSize=30;container=1;collapsible=1;childLayout=tableLayout;fixedRows=1;rowLines=0;fontStyle=1;align=center;resizeLast=1;" parent="1" vertex="1"><mxGeometry x="30" y="-440" width="180" height="670" as="geometry"/></mxCell><mxCell id="35" value="" style="shape=partialRectangle;collapsible=0;dropTarget=0;pointerEvents=0;fillColor=none;top=0;left=0;bottom=1;right=0;points=[[0,0.5],[1,0.5]];portConstraint=eastwest;" parent="34" vertex="1"><mxGeometry y="30" width="180" height="30" as="geometry"/></mxCell><mxCell id="36" value="PK" style="shape=partialRectangle;connectable=0;fillColor=none;top=0;left=0;bottom=0;right=0;fontStyle=1;overflow=hidden;" parent="35" vertex="1"><mxGeometry width="30" height="30" as="geometry"><mxRectangle width="30" height="30" as="alternateBounds"/></mxGeometry></mxCell><mxCell id="37" value="id" style="shape=partialRectangle;connectable=0;fillColor=none;top=0;left=0;bottom=0;right=0;align=left;spacingLeft=6;fontStyle=5;overflow=hidden;" parent="35" vertex="1"><mxGeometry x="30" width="150" height="30" as="geometry"><mxRectangle width="150" height="30" as="alternateBounds"/></mxGeometry></mxCell><mxCell id="38" value="" style="shape=partialRectangle;collapsible=0;dropTarget=0;pointerEvents=0;fillColor=none;top=0;left=0;bottom=0;right=0;points=[[0,0.5],[1,0.5]];portConstraint=eastwest;" parent="34" vertex="1"><mxGeometry y="60" width="180" height="30" as="geometry"/></mxCell><mxCell id="39" value="" style="shape=partialRectangle;connectable=0;fillColor=none;top=0;left=0;bottom=0;right=0;editable=1;overflow=hidden;" parent="38" vertex="1"><mxGeometry width="30" height="30" as="geometry"><mxRectangle width="30" height="30" as="alternateBounds"/></mxGeometry></mxCell><mxCell id="40" value="wecom_order_id" style="shape=partialRectangle;connectable=0;fillColor=none;top=0;left=0;bottom=0;right=0;align=left;spacingLeft=6;overflow=hidden;" parent="38" vertex="1"><mxGeometry x="30" width="150" height="30" as="geometry"><mxRectangle width="150" height="30" as="alternateBounds"/></mxGeometry></mxCell><mxCell id="41" value="" style="shape=partialRectangle;collapsible=0;dropTarget=0;pointerEvents=0;fillColor=none;top=0;left=0;bottom=0;right=0;points=[[0,0.5],[1,0.5]];portConstraint=eastwest;" parent="34" vertex="1"><mxGeometry y="90" width="180" height="30" as="geometry"/></mxCell><mxCell id="42" value="" style="shape=partialRectangle;connectable=0;fillColor=none;top=0;left=0;bottom=0;right=0;editable=1;overflow=hidden;" parent="41" vertex="1"><mxGeometry width="30" height="30" as="geometry"><mxRectangle width="30" height="30" as="alternateBounds"/></mxGeometry></mxCell><mxCell id="43" value="order_status" style="shape=partialRectangle;connectable=0;fillColor=none;top=0;left=0;bottom=0;right=0;align=left;spacingLeft=6;overflow=hidden;" parent="41" vertex="1"><mxGeometry x="30" width="150" height="30" as="geometry"><mxRectangle width="150" height="30" as="alternateBounds"/></mxGeometry></mxCell><mxCell id="44" value="" style="shape=partialRectangle;collapsible=0;dropTarget=0;pointerEvents=0;fillColor=none;top=0;left=0;bottom=0;right=0;points=[[0,0.5],[1,0.5]];portConstraint=eastwest;" parent="34" vertex="1"><mxGeometry y="120" width="180" height="30" as="geometry"/></mxCell><mxCell id="45" value="" style="shape=partialRectangle;connectable=0;fillColor=none;top=0;left=0;bottom=0;right=0;editable=1;overflow=hidden;" parent="44" vertex="1"><mxGeometry width="30" height="30" as="geometry"><mxRectangle width="30" height="30" as="alternateBounds"/></mxGeometry></mxCell><mxCell id="46" value="paid_corp_id" style="shape=partialRectangle;connectable=0;fillColor=none;top=0;left=0;bottom=0;right=0;align=left;spacingLeft=6;overflow=hidden;" parent="44" vertex="1"><mxGeometry x="30" width="150" height="30" as="geometry"><mxRectangle width="150" height="30" as="alternateBounds"/></mxGeometry></mxCell><mxCell id="53" value="" style="shape=partialRectangle;collapsible=0;dropTarget=0;pointerEvents=0;fillColor=none;top=0;left=0;bottom=0;right=0;points=[[0,0.5],[1,0.5]];portConstraint=eastwest;" parent="34" vertex="1"><mxGeometry y="150" width="180" height="30" as="geometry"/></mxCell><mxCell id="54" value="" style="shape=partialRectangle;connectable=0;fillColor=none;top=0;left=0;bottom=0;right=0;editable=1;overflow=hidden;" parent="53" vertex="1"><mxGeometry width="30" height="30" as="geometry"><mxRectangle width="30" height="30" as="alternateBounds"/></mxGeometry></mxCell><mxCell id="55" value="operator_id" style="shape=partialRectangle;connectable=0;fillColor=none;top=0;left=0;bottom=0;right=0;align=left;spacingLeft=6;overflow=hidden;" parent="53" vertex="1"><mxGeometry x="30" width="150" height="30" as="geometry"><mxRectangle width="150" height="30" as="alternateBounds"/></mxGeometry></mxCell><mxCell id="56" value="" style="shape=partialRectangle;collapsible=0;dropTarget=0;pointerEvents=0;fillColor=none;top=0;left=0;bottom=0;right=0;points=[[0,0.5],[1,0.5]];portConstraint=eastwest;" parent="34" vertex="1"><mxGeometry y="180" width="180" height="30" as="geometry"/></mxCell><mxCell id="57" value="" style="shape=partialRectangle;connectable=0;fillColor=none;top=0;left=0;bottom=0;right=0;editable=1;overflow=hidden;" parent="56" vertex="1"><mxGeometry width="30" height="30" as="geometry"><mxRectangle width="30" height="30" as="alternateBounds"/></mxGeometry></mxCell><mxCell id="58" value="suite_id" style="shape=partialRectangle;connectable=0;fillColor=none;top=0;left=0;bottom=0;right=0;align=left;spacingLeft=6;overflow=hidden;" parent="56" vertex="1"><mxGeometry x="30" width="150" height="30" as="geometry"><mxRectangle width="150" height="30" as="alternateBounds"/></mxGeometry></mxCell><mxCell id="59" value="" style="shape=partialRectangle;collapsible=0;dropTarget=0;pointerEvents=0;fillColor=none;top=0;left=0;bottom=0;right=0;points=[[0,0.5],[1,0.5]];portConstraint=eastwest;" parent="34" vertex="1"><mxGeometry y="210" width="180" height="30" as="geometry"/></mxCell><mxCell id="60" value="" style="shape=partialRectangle;connectable=0;fillColor=none;top=0;left=0;bottom=0;right=0;editable=1;overflow=hidden;" parent="59" vertex="1"><mxGeometry width="30" height="30" as="geometry"><mxRectangle width="30" height="30" as="alternateBounds"/></mxGeometry></mxCell><mxCell id="61" value="edition_id" style="shape=partialRectangle;connectable=0;fillColor=none;top=0;left=0;bottom=0;right=0;align=left;spacingLeft=6;overflow=hidden;" parent="59" vertex="1"><mxGeometry x="30" width="150" height="30" as="geometry"><mxRectangle width="150" height="30" as="alternateBounds"/></mxGeometry></mxCell><mxCell id="62" value="" style="shape=partialRectangle;collapsible=0;dropTarget=0;pointerEvents=0;fillColor=none;top=0;left=0;bottom=0;right=0;points=[[0,0.5],[1,0.5]];portConstraint=eastwest;" parent="34" vertex="1"><mxGeometry y="240" width="180" height="30" as="geometry"/></mxCell><mxCell id="63" value="" style="shape=partialRectangle;connectable=0;fillColor=none;top=0;left=0;bottom=0;right=0;editable=1;overflow=hidden;" parent="62" vertex="1"><mxGeometry width="30" height="30" as="geometry"><mxRectangle width="30" height="30" as="alternateBounds"/></mxGeometry></mxCell><mxCell id="64" value="price" style="shape=partialRectangle;connectable=0;fillColor=none;top=0;left=0;bottom=0;right=0;align=left;spacingLeft=6;overflow=hidden;" parent="62" vertex="1"><mxGeometry x="30" width="150" height="30" as="geometry"><mxRectangle width="150" height="30" as="alternateBounds"/></mxGeometry></mxCell><mxCell id="65" value="" style="shape=partialRectangle;collapsible=0;dropTarget=0;pointerEvents=0;fillColor=none;top=0;left=0;bottom=0;right=0;points=[[0,0.5],[1,0.5]];portConstraint=eastwest;" parent="34" vertex="1"><mxGeometry y="270" width="180" height="30" as="geometry"/></mxCell><mxCell id="66" value="" style="shape=partialRectangle;connectable=0;fillColor=none;top=0;left=0;bottom=0;right=0;editable=1;overflow=hidden;" parent="65" vertex="1"><mxGeometry width="30" height="30" as="geometry"><mxRectangle width="30" height="30" as="alternateBounds"/></mxGeometry></mxCell><mxCell id="67" value="user_count" style="shape=partialRectangle;connectable=0;fillColor=none;top=0;left=0;bottom=0;right=0;align=left;spacingLeft=6;overflow=hidden;" parent="65" vertex="1"><mxGeometry x="30" width="150" height="30" as="geometry"><mxRectangle width="150" height="30" as="alternateBounds"/></mxGeometry></mxCell><mxCell id="68" value="" style="shape=partialRectangle;collapsible=0;dropTarget=0;pointerEvents=0;fillColor=none;top=0;left=0;bottom=0;right=0;points=[[0,0.5],[1,0.5]];portConstraint=eastwest;" parent="34" vertex="1"><mxGeometry y="300" width="180" height="30" as="geometry"/></mxCell><mxCell id="69" value="" style="shape=partialRectangle;connectable=0;fillColor=none;top=0;left=0;bottom=0;right=0;editable=1;overflow=hidden;" parent="68" vertex="1"><mxGeometry width="30" height="30" as="geometry"><mxRectangle width="30" height="30" as="alternateBounds"/></mxGeometry></mxCell><mxCell id="70" value="order_period" style="shape=partialRectangle;connectable=0;fillColor=none;top=0;left=0;bottom=0;right=0;align=left;spacingLeft=6;overflow=hidden;" parent="68" vertex="1"><mxGeometry x="30" width="150" height="30" as="geometry"><mxRectangle width="150" height="30" as="alternateBounds"/></mxGeometry></mxCell><mxCell id="71" value="" style="shape=partialRectangle;collapsible=0;dropTarget=0;pointerEvents=0;fillColor=none;top=0;left=0;bottom=0;right=0;points=[[0,0.5],[1,0.5]];portConstraint=eastwest;" parent="34" vertex="1"><mxGeometry y="330" width="180" height="30" as="geometry"/></mxCell><mxCell id="72" value="" style="shape=partialRectangle;connectable=0;fillColor=none;top=0;left=0;bottom=0;right=0;editable=1;overflow=hidden;" parent="71" vertex="1"><mxGeometry width="30" height="30" as="geometry"><mxRectangle width="30" height="30" as="alternateBounds"/></mxGeometry></mxCell><mxCell id="73" value="order_time" style="shape=partialRectangle;connectable=0;fillColor=none;top=0;left=0;bottom=0;right=0;align=left;spacingLeft=6;overflow=hidden;" parent="71" vertex="1"><mxGeometry x="30" width="150" height="30" as="geometry"><mxRectangle width="150" height="30" as="alternateBounds"/></mxGeometry></mxCell><mxCell id="75" value="" style="shape=partialRectangle;collapsible=0;dropTarget=0;pointerEvents=0;fillColor=none;top=0;left=0;bottom=0;right=0;points=[[0,0.5],[1,0.5]];portConstraint=eastwest;" parent="34" vertex="1"><mxGeometry y="360" width="180" height="30" as="geometry"/></mxCell><mxCell id="76" value="" style="shape=partialRectangle;connectable=0;fillColor=none;top=0;left=0;bottom=0;right=0;editable=1;overflow=hidden;" parent="75" vertex="1"><mxGeometry width="30" height="30" as="geometry"><mxRectangle width="30" height="30" as="alternateBounds"/></mxGeometry></mxCell><mxCell id="77" value="paid_time" style="shape=partialRectangle;connectable=0;fillColor=none;top=0;left=0;bottom=0;right=0;align=left;spacingLeft=6;overflow=hidden;" parent="75" vertex="1"><mxGeometry x="30" width="150" height="30" as="geometry"><mxRectangle width="150" height="30" as="alternateBounds"/></mxGeometry></mxCell><mxCell id="78" value="" style="shape=partialRectangle;collapsible=0;dropTarget=0;pointerEvents=0;fillColor=none;top=0;left=0;bottom=0;right=0;points=[[0,0.5],[1,0.5]];portConstraint=eastwest;" parent="34" vertex="1"><mxGeometry y="390" width="180" height="30" as="geometry"/></mxCell><mxCell id="79" value="" style="shape=partialRectangle;connectable=0;fillColor=none;top=0;left=0;bottom=0;right=0;editable=1;overflow=hidden;" parent="78" vertex="1"><mxGeometry width="30" height="30" as="geometry"><mxRectangle width="30" height="30" as="alternateBounds"/></mxGeometry></mxCell><mxCell id="80" value="begin_time" style="shape=partialRectangle;connectable=0;fillColor=none;top=0;left=0;bottom=0;right=0;align=left;spacingLeft=6;overflow=hidden;" parent="78" vertex="1"><mxGeometry x="30" width="150" height="30" as="geometry"><mxRectangle width="150" height="30" as="alternateBounds"/></mxGeometry></mxCell><mxCell id="81" value="" style="shape=partialRectangle;collapsible=0;dropTarget=0;pointerEvents=0;fillColor=none;top=0;left=0;bottom=0;right=0;points=[[0,0.5],[1,0.5]];portConstraint=eastwest;" parent="34" vertex="1"><mxGeometry y="420" width="180" height="30" as="geometry"/></mxCell><mxCell id="82" value="" style="shape=partialRectangle;connectable=0;fillColor=none;top=0;left=0;bottom=0;right=0;editable=1;overflow=hidden;" parent="81" vertex="1"><mxGeometry width="30" height="30" as="geometry"><mxRectangle width="30" height="30" as="alternateBounds"/></mxGeometry></mxCell><mxCell id="83" value="end_time" style="shape=partialRectangle;connectable=0;fillColor=none;top=0;left=0;bottom=0;right=0;align=left;spacingLeft=6;overflow=hidden;" parent="81" vertex="1"><mxGeometry x="30" width="150" height="30" as="geometry"><mxRectangle width="150" height="30" as="alternateBounds"/></mxGeometry></mxCell><mxCell id="84" value="" style="shape=partialRectangle;collapsible=0;dropTarget=0;pointerEvents=0;fillColor=none;top=0;left=0;bottom=0;right=0;points=[[0,0.5],[1,0.5]];portConstraint=eastwest;" parent="34" vertex="1"><mxGeometry y="450" width="180" height="30" as="geometry"/></mxCell><mxCell id="85" value="" style="shape=partialRectangle;connectable=0;fillColor=none;top=0;left=0;bottom=0;right=0;editable=1;overflow=hidden;" parent="84" vertex="1"><mxGeometry width="30" height="30" as="geometry"><mxRectangle width="30" height="30" as="alternateBounds"/></mxGeometry></mxCell><mxCell id="86" value="order_from" style="shape=partialRectangle;connectable=0;fillColor=none;top=0;left=0;bottom=0;right=0;align=left;spacingLeft=6;overflow=hidden;" parent="84" vertex="1"><mxGeometry x="30" width="150" height="30" as="geometry"><mxRectangle width="150" height="30" as="alternateBounds"/></mxGeometry></mxCell><mxCell id="87" value="" style="shape=partialRectangle;collapsible=0;dropTarget=0;pointerEvents=0;fillColor=none;top=0;left=0;bottom=0;right=0;points=[[0,0.5],[1,0.5]];portConstraint=eastwest;" parent="34" vertex="1"><mxGeometry y="480" width="180" height="30" as="geometry"/></mxCell><mxCell id="88" value="" style="shape=partialRectangle;connectable=0;fillColor=none;top=0;left=0;bottom=0;right=0;editable=1;overflow=hidden;" parent="87" vertex="1"><mxGeometry width="30" height="30" as="geometry"><mxRectangle width="30" height="30" as="alternateBounds"/></mxGeometry></mxCell><mxCell id="89" value="operator_corp_id" style="shape=partialRectangle;connectable=0;fillColor=none;top=0;left=0;bottom=0;right=0;align=left;spacingLeft=6;overflow=hidden;" parent="87" vertex="1"><mxGeometry x="30" width="150" height="30" as="geometry"><mxRectangle width="150" height="30" as="alternateBounds"/></mxGeometry></mxCell><mxCell id="90" value="" style="shape=partialRectangle;collapsible=0;dropTarget=0;pointerEvents=0;fillColor=none;top=0;left=0;bottom=0;right=0;points=[[0,0.5],[1,0.5]];portConstraint=eastwest;" parent="34" vertex="1"><mxGeometry y="510" width="180" height="30" as="geometry"/></mxCell><mxCell id="91" value="" style="shape=partialRectangle;connectable=0;fillColor=none;top=0;left=0;bottom=0;right=0;editable=1;overflow=hidden;" parent="90" vertex="1"><mxGeometry width="30" height="30" as="geometry"><mxRectangle width="30" height="30" as="alternateBounds"/></mxGeometry></mxCell><mxCell id="92" value="service_share_amount" style="shape=partialRectangle;connectable=0;fillColor=none;top=0;left=0;bottom=0;right=0;align=left;spacingLeft=6;overflow=hidden;" parent="90" vertex="1"><mxGeometry x="30" width="150" height="30" as="geometry"><mxRectangle width="150" height="30" as="alternateBounds"/></mxGeometry></mxCell><mxCell id="93" value="" style="shape=partialRectangle;collapsible=0;dropTarget=0;pointerEvents=0;fillColor=none;top=0;left=0;bottom=0;right=0;points=[[0,0.5],[1,0.5]];portConstraint=eastwest;" parent="34" vertex="1"><mxGeometry y="540" width="180" height="30" as="geometry"/></mxCell><mxCell id="94" value="" style="shape=partialRectangle;connectable=0;fillColor=none;top=0;left=0;bottom=0;right=0;editable=1;overflow=hidden;" parent="93" vertex="1"><mxGeometry width="30" height="30" as="geometry"><mxRectangle width="30" height="30" as="alternateBounds"/></mxGeometry></mxCell><mxCell id="95" value="platform_share_amount" style="shape=partialRectangle;connectable=0;fillColor=none;top=0;left=0;bottom=0;right=0;align=left;spacingLeft=6;overflow=hidden;" parent="93" vertex="1"><mxGeometry x="30" width="150" height="30" as="geometry"><mxRectangle width="150" height="30" as="alternateBounds"/></mxGeometry></mxCell><mxCell id="96" value="" style="shape=partialRectangle;collapsible=0;dropTarget=0;pointerEvents=0;fillColor=none;top=0;left=0;bottom=0;right=0;points=[[0,0.5],[1,0.5]];portConstraint=eastwest;" parent="34" vertex="1"><mxGeometry y="570" width="180" height="30" as="geometry"/></mxCell><mxCell id="97" value="" style="shape=partialRectangle;connectable=0;fillColor=none;top=0;left=0;bottom=0;right=0;editable=1;overflow=hidden;" parent="96" vertex="1"><mxGeometry width="30" height="30" as="geometry"><mxRectangle width="30" height="30" as="alternateBounds"/></mxGeometry></mxCell><mxCell id="98" value="dealer_share_amount" style="shape=partialRectangle;connectable=0;fillColor=none;top=0;left=0;bottom=0;right=0;align=left;spacingLeft=6;overflow=hidden;" parent="96" vertex="1"><mxGeometry x="30" width="150" height="30" as="geometry"><mxRectangle width="150" height="30" as="alternateBounds"/></mxGeometry></mxCell><mxCell id="99" value="" style="shape=partialRectangle;collapsible=0;dropTarget=0;pointerEvents=0;fillColor=none;top=0;left=0;bottom=0;right=0;points=[[0,0.5],[1,0.5]];portConstraint=eastwest;" parent="34" vertex="1"><mxGeometry y="600" width="180" height="30" as="geometry"/></mxCell><mxCell id="100" value="" style="shape=partialRectangle;connectable=0;fillColor=none;top=0;left=0;bottom=0;right=0;editable=1;overflow=hidden;" parent="99" vertex="1"><mxGeometry width="30" height="30" as="geometry"><mxRectangle width="30" height="30" as="alternateBounds"/></mxGeometry></mxCell><mxCell id="101" value="dealer_corp_id" style="shape=partialRectangle;connectable=0;fillColor=none;top=0;left=0;bottom=0;right=0;align=left;spacingLeft=6;overflow=hidden;" parent="99" vertex="1"><mxGeometry x="30" width="150" height="30" as="geometry"><mxRectangle width="150" height="30" as="alternateBounds"/></mxGeometry></mxCell><mxCell id="102" value="" style="shape=partialRectangle;collapsible=0;dropTarget=0;pointerEvents=0;fillColor=none;top=0;left=0;bottom=0;right=0;points=[[0,0.5],[1,0.5]];portConstraint=eastwest;" parent="34" vertex="1"><mxGeometry y="630" width="180" height="30" as="geometry"/></mxCell><mxCell id="103" value="" style="shape=partialRectangle;connectable=0;fillColor=none;top=0;left=0;bottom=0;right=0;editable=1;overflow=hidden;" parent="102" vertex="1"><mxGeometry width="30" height="30" as="geometry"><mxRectangle width="30" height="30" as="alternateBounds"/></mxGeometry></mxCell><mxCell id="104" value="order_info" style="shape=partialRectangle;connectable=0;fillColor=none;top=0;left=0;bottom=0;right=0;align=left;spacingLeft=6;overflow=hidden;" parent="102" vertex="1"><mxGeometry x="30" width="150" height="30" as="geometry"><mxRectangle width="150" height="30" as="alternateBounds"/></mxGeometry></mxCell><mxCell id="6EP8Lx5cC8tgFNHVOdCp-120" style="edgeStyle=orthogonalEdgeStyle;rounded=0;orthogonalLoop=1;jettySize=auto;html=1;exitX=1;exitY=0.5;exitDx=0;exitDy=0;" parent="1" source="F4zQujOyoh7R0P-sWK7r-341" target="F4zQujOyoh7R0P-sWK7r-387" edge="1"><mxGeometry relative="1" as="geometry"/></mxCell><mxCell id="6EP8Lx5cC8tgFNHVOdCp-121" value="bundle" style="shape=table;startSize=30;container=1;collapsible=1;childLayout=tableLayout;fixedRows=1;rowLines=0;fontStyle=1;align=center;resizeLast=1;" parent="1" vertex="1"><mxGeometry x="-470" y="-230" width="180" height="340" as="geometry"/></mxCell><mxCell id="6EP8Lx5cC8tgFNHVOdCp-122" value="" style="shape=tableRow;horizontal=0;startSize=0;swimlaneHead=0;swimlaneBody=0;fillColor=none;collapsible=0;dropTarget=0;points=[[0,0.5],[1,0.5]];portConstraint=eastwest;top=0;left=0;right=0;bottom=1;" parent="6EP8Lx5cC8tgFNHVOdCp-121" vertex="1"><mxGeometry y="30" width="180" height="30" as="geometry"/></mxCell><mxCell id="6EP8Lx5cC8tgFNHVOdCp-123" value="PK" style="shape=partialRectangle;connectable=0;fillColor=none;top=0;left=0;bottom=0;right=0;fontStyle=1;overflow=hidden;" parent="6EP8Lx5cC8tgFNHVOdCp-122" vertex="1"><mxGeometry width="30" height="30" as="geometry"><mxRectangle width="30" height="30" as="alternateBounds"/></mxGeometry></mxCell><mxCell id="6EP8Lx5cC8tgFNHVOdCp-124" value="id" style="shape=partialRectangle;connectable=0;fillColor=none;top=0;left=0;bottom=0;right=0;align=left;spacingLeft=6;fontStyle=5;overflow=hidden;" parent="6EP8Lx5cC8tgFNHVOdCp-122" vertex="1"><mxGeometry x="30" width="150" height="30" as="geometry"><mxRectangle width="150" height="30" as="alternateBounds"/></mxGeometry></mxCell><mxCell id="6EP8Lx5cC8tgFNHVOdCp-125" value="" style="shape=tableRow;horizontal=0;startSize=0;swimlaneHead=0;swimlaneBody=0;fillColor=none;collapsible=0;dropTarget=0;points=[[0,0.5],[1,0.5]];portConstraint=eastwest;top=0;left=0;right=0;bottom=0;" parent="6EP8Lx5cC8tgFNHVOdCp-121" vertex="1"><mxGeometry y="60" width="180" height="30" as="geometry"/></mxCell><mxCell id="6EP8Lx5cC8tgFNHVOdCp-126" value="" style="shape=partialRectangle;connectable=0;fillColor=none;top=0;left=0;bottom=0;right=0;editable=1;overflow=hidden;" parent="6EP8Lx5cC8tgFNHVOdCp-125" vertex="1"><mxGeometry width="30" height="30" as="geometry"><mxRectangle width="30" height="30" as="alternateBounds"/></mxGeometry></mxCell><mxCell id="6EP8Lx5cC8tgFNHVOdCp-127" value="space_id" style="shape=partialRectangle;connectable=0;fillColor=none;top=0;left=0;bottom=0;right=0;align=left;spacingLeft=6;overflow=hidden;" parent="6EP8Lx5cC8tgFNHVOdCp-125" vertex="1"><mxGeometry x="30" width="150" height="30" as="geometry"><mxRectangle width="150" height="30" as="alternateBounds"/></mxGeometry></mxCell><mxCell id="6EP8Lx5cC8tgFNHVOdCp-128" value="" style="shape=tableRow;horizontal=0;startSize=0;swimlaneHead=0;swimlaneBody=0;fillColor=none;collapsible=0;dropTarget=0;points=[[0,0.5],[1,0.5]];portConstraint=eastwest;top=0;left=0;right=0;bottom=0;" parent="6EP8Lx5cC8tgFNHVOdCp-121" vertex="1"><mxGeometry y="90" width="180" height="30" as="geometry"/></mxCell><mxCell id="6EP8Lx5cC8tgFNHVOdCp-129" value="" style="shape=partialRectangle;connectable=0;fillColor=none;top=0;left=0;bottom=0;right=0;editable=1;overflow=hidden;" parent="6EP8Lx5cC8tgFNHVOdCp-128" vertex="1"><mxGeometry width="30" height="30" as="geometry"><mxRectangle width="30" height="30" as="alternateBounds"/></mxGeometry></mxCell><mxCell id="6EP8Lx5cC8tgFNHVOdCp-130" value="bundle_id" style="shape=partialRectangle;connectable=0;fillColor=none;top=0;left=0;bottom=0;right=0;align=left;spacingLeft=6;overflow=hidden;" parent="6EP8Lx5cC8tgFNHVOdCp-128" vertex="1"><mxGeometry x="30" width="150" height="30" as="geometry"><mxRectangle width="150" height="30" as="alternateBounds"/></mxGeometry></mxCell><mxCell id="6EP8Lx5cC8tgFNHVOdCp-167" value="" style="shape=tableRow;horizontal=0;startSize=0;swimlaneHead=0;swimlaneBody=0;fillColor=none;collapsible=0;dropTarget=0;points=[[0,0.5],[1,0.5]];portConstraint=eastwest;top=0;left=0;right=0;bottom=0;" parent="6EP8Lx5cC8tgFNHVOdCp-121" vertex="1"><mxGeometry y="120" width="180" height="30" as="geometry"/></mxCell><mxCell id="6EP8Lx5cC8tgFNHVOdCp-168" value="" style="shape=partialRectangle;connectable=0;fillColor=none;top=0;left=0;bottom=0;right=0;editable=1;overflow=hidden;" parent="6EP8Lx5cC8tgFNHVOdCp-167" vertex="1"><mxGeometry width="30" height="30" as="geometry"><mxRectangle width="30" height="30" as="alternateBounds"/></mxGeometry></mxCell><mxCell id="6EP8Lx5cC8tgFNHVOdCp-169" value="original_created_at" style="shape=partialRectangle;connectable=0;fillColor=none;top=0;left=0;bottom=0;right=0;align=left;spacingLeft=6;overflow=hidden;" parent="6EP8Lx5cC8tgFNHVOdCp-167" vertex="1"><mxGeometry x="30" width="150" height="30" as="geometry"><mxRectangle width="150" height="30" as="alternateBounds"/></mxGeometry></mxCell><mxCell id="6EP8Lx5cC8tgFNHVOdCp-137" value="" style="shape=tableRow;horizontal=0;startSize=0;swimlaneHead=0;swimlaneBody=0;fillColor=none;collapsible=0;dropTarget=0;points=[[0,0.5],[1,0.5]];portConstraint=eastwest;top=0;left=0;right=0;bottom=0;" parent="6EP8Lx5cC8tgFNHVOdCp-121" vertex="1"><mxGeometry y="150" width="180" height="30" as="geometry"/></mxCell><mxCell id="6EP8Lx5cC8tgFNHVOdCp-138" value="" style="shape=partialRectangle;connectable=0;fillColor=none;top=0;left=0;bottom=0;right=0;editable=1;overflow=hidden;" parent="6EP8Lx5cC8tgFNHVOdCp-137" vertex="1"><mxGeometry width="30" height="30" as="geometry"><mxRectangle width="30" height="30" as="alternateBounds"/></mxGeometry></mxCell><mxCell id="6EP8Lx5cC8tgFNHVOdCp-139" value="state varchar(10)" style="shape=partialRectangle;connectable=0;fillColor=none;top=0;left=0;bottom=0;right=0;align=left;spacingLeft=6;overflow=hidden;" parent="6EP8Lx5cC8tgFNHVOdCp-137" vertex="1"><mxGeometry x="30" width="150" height="30" as="geometry"><mxRectangle width="150" height="30" as="alternateBounds"/></mxGeometry></mxCell><mxCell id="6EP8Lx5cC8tgFNHVOdCp-140" value="" style="shape=tableRow;horizontal=0;startSize=0;swimlaneHead=0;swimlaneBody=0;fillColor=none;collapsible=0;dropTarget=0;points=[[0,0.5],[1,0.5]];portConstraint=eastwest;top=0;left=0;right=0;bottom=0;" parent="6EP8Lx5cC8tgFNHVOdCp-121" vertex="1"><mxGeometry y="180" width="180" height="30" as="geometry"/></mxCell><mxCell id="6EP8Lx5cC8tgFNHVOdCp-141" value="" style="shape=partialRectangle;connectable=0;fillColor=none;top=0;left=0;bottom=0;right=0;editable=1;overflow=hidden;" parent="6EP8Lx5cC8tgFNHVOdCp-140" vertex="1"><mxGeometry width="30" height="30" as="geometry"><mxRectangle width="30" height="30" as="alternateBounds"/></mxGeometry></mxCell><mxCell id="6EP8Lx5cC8tgFNHVOdCp-142" value="is_deleted" style="shape=partialRectangle;connectable=0;fillColor=none;top=0;left=0;bottom=0;right=0;align=left;spacingLeft=6;overflow=hidden;" parent="6EP8Lx5cC8tgFNHVOdCp-140" vertex="1"><mxGeometry x="30" width="150" height="30" as="geometry"><mxRectangle width="150" height="30" as="alternateBounds"/></mxGeometry></mxCell><mxCell id="6EP8Lx5cC8tgFNHVOdCp-143" value="" style="shape=tableRow;horizontal=0;startSize=0;swimlaneHead=0;swimlaneBody=0;fillColor=none;collapsible=0;dropTarget=0;points=[[0,0.5],[1,0.5]];portConstraint=eastwest;top=0;left=0;right=0;bottom=0;" parent="6EP8Lx5cC8tgFNHVOdCp-121" vertex="1"><mxGeometry y="210" width="180" height="30" as="geometry"/></mxCell><mxCell id="6EP8Lx5cC8tgFNHVOdCp-144" value="" style="shape=partialRectangle;connectable=0;fillColor=none;top=0;left=0;bottom=0;right=0;editable=1;overflow=hidden;" parent="6EP8Lx5cC8tgFNHVOdCp-143" vertex="1"><mxGeometry width="30" height="30" as="geometry"><mxRectangle width="30" height="30" as="alternateBounds"/></mxGeometry></mxCell><mxCell id="6EP8Lx5cC8tgFNHVOdCp-145" value="created_by" style="shape=partialRectangle;connectable=0;fillColor=none;top=0;left=0;bottom=0;right=0;align=left;spacingLeft=6;overflow=hidden;" parent="6EP8Lx5cC8tgFNHVOdCp-143" vertex="1"><mxGeometry x="30" width="150" height="30" as="geometry"><mxRectangle width="150" height="30" as="alternateBounds"/></mxGeometry></mxCell><mxCell id="6EP8Lx5cC8tgFNHVOdCp-146" value="" style="shape=tableRow;horizontal=0;startSize=0;swimlaneHead=0;swimlaneBody=0;fillColor=none;collapsible=0;dropTarget=0;points=[[0,0.5],[1,0.5]];portConstraint=eastwest;top=0;left=0;right=0;bottom=0;" parent="6EP8Lx5cC8tgFNHVOdCp-121" vertex="1"><mxGeometry y="240" width="180" height="30" as="geometry"/></mxCell><mxCell id="6EP8Lx5cC8tgFNHVOdCp-147" value="" style="shape=partialRectangle;connectable=0;fillColor=none;top=0;left=0;bottom=0;right=0;editable=1;overflow=hidden;" parent="6EP8Lx5cC8tgFNHVOdCp-146" vertex="1"><mxGeometry width="30" height="30" as="geometry"><mxRectangle width="30" height="30" as="alternateBounds"/></mxGeometry></mxCell><mxCell id="6EP8Lx5cC8tgFNHVOdCp-148" value="created_at" style="shape=partialRectangle;connectable=0;fillColor=none;top=0;left=0;bottom=0;right=0;align=left;spacingLeft=6;overflow=hidden;" parent="6EP8Lx5cC8tgFNHVOdCp-146" vertex="1"><mxGeometry x="30" width="150" height="30" as="geometry"><mxRectangle width="150" height="30" as="alternateBounds"/></mxGeometry></mxCell><mxCell id="6EP8Lx5cC8tgFNHVOdCp-149" value="" style="shape=tableRow;horizontal=0;startSize=0;swimlaneHead=0;swimlaneBody=0;fillColor=none;collapsible=0;dropTarget=0;points=[[0,0.5],[1,0.5]];portConstraint=eastwest;top=0;left=0;right=0;bottom=0;" parent="6EP8Lx5cC8tgFNHVOdCp-121" vertex="1"><mxGeometry y="270" width="180" height="30" as="geometry"/></mxCell><mxCell id="6EP8Lx5cC8tgFNHVOdCp-150" value="" style="shape=partialRectangle;connectable=0;fillColor=none;top=0;left=0;bottom=0;right=0;editable=1;overflow=hidden;" parent="6EP8Lx5cC8tgFNHVOdCp-149" vertex="1"><mxGeometry width="30" height="30" as="geometry"><mxRectangle width="30" height="30" as="alternateBounds"/></mxGeometry></mxCell><mxCell id="6EP8Lx5cC8tgFNHVOdCp-151" value="updated_by" style="shape=partialRectangle;connectable=0;fillColor=none;top=0;left=0;bottom=0;right=0;align=left;spacingLeft=6;overflow=hidden;" parent="6EP8Lx5cC8tgFNHVOdCp-149" vertex="1"><mxGeometry x="30" width="150" height="30" as="geometry"><mxRectangle width="150" height="30" as="alternateBounds"/></mxGeometry></mxCell><mxCell id="6EP8Lx5cC8tgFNHVOdCp-152" value="" style="shape=tableRow;horizontal=0;startSize=0;swimlaneHead=0;swimlaneBody=0;fillColor=none;collapsible=0;dropTarget=0;points=[[0,0.5],[1,0.5]];portConstraint=eastwest;top=0;left=0;right=0;bottom=0;" parent="6EP8Lx5cC8tgFNHVOdCp-121" vertex="1"><mxGeometry y="300" width="180" height="30" as="geometry"/></mxCell><mxCell id="6EP8Lx5cC8tgFNHVOdCp-153" value="" style="shape=partialRectangle;connectable=0;fillColor=none;top=0;left=0;bottom=0;right=0;editable=1;overflow=hidden;" parent="6EP8Lx5cC8tgFNHVOdCp-152" vertex="1"><mxGeometry width="30" height="30" as="geometry"><mxRectangle width="30" height="30" as="alternateBounds"/></mxGeometry></mxCell><mxCell id="6EP8Lx5cC8tgFNHVOdCp-154" value="updated_at" style="shape=partialRectangle;connectable=0;fillColor=none;top=0;left=0;bottom=0;right=0;align=left;spacingLeft=6;overflow=hidden;" parent="6EP8Lx5cC8tgFNHVOdCp-152" vertex="1"><mxGeometry x="30" width="150" height="30" as="geometry"><mxRectangle width="150" height="30" as="alternateBounds"/></mxGeometry></mxCell><mxCell id="6EP8Lx5cC8tgFNHVOdCp-173" value="space" style="shape=table;startSize=30;container=1;collapsible=1;childLayout=tableLayout;fixedRows=1;rowLines=0;fontStyle=1;align=center;resizeLast=1;fillColor=none;" parent="1" vertex="1"><mxGeometry x="-260" y="-410" width="180" height="130" as="geometry"/></mxCell><mxCell id="6EP8Lx5cC8tgFNHVOdCp-174" value="" style="shape=tableRow;horizontal=0;startSize=0;swimlaneHead=0;swimlaneBody=0;fillColor=none;collapsible=0;dropTarget=0;points=[[0,0.5],[1,0.5]];portConstraint=eastwest;top=0;left=0;right=0;bottom=1;dashed=1;" parent="6EP8Lx5cC8tgFNHVOdCp-173" vertex="1"><mxGeometry y="30" width="180" height="30" as="geometry"/></mxCell><mxCell id="6EP8Lx5cC8tgFNHVOdCp-175" value="PK" style="shape=partialRectangle;connectable=0;fillColor=none;top=0;left=0;bottom=0;right=0;fontStyle=1;overflow=hidden;dashed=1;" parent="6EP8Lx5cC8tgFNHVOdCp-174" vertex="1"><mxGeometry width="30" height="30" as="geometry"><mxRectangle width="30" height="30" as="alternateBounds"/></mxGeometry></mxCell><mxCell id="6EP8Lx5cC8tgFNHVOdCp-176" value="id" style="shape=partialRectangle;connectable=0;fillColor=none;top=0;left=0;bottom=0;right=0;align=left;spacingLeft=6;fontStyle=5;overflow=hidden;dashed=1;" parent="6EP8Lx5cC8tgFNHVOdCp-174" vertex="1"><mxGeometry x="30" width="150" height="30" as="geometry"><mxRectangle width="150" height="30" as="alternateBounds"/></mxGeometry></mxCell><mxCell id="6EP8Lx5cC8tgFNHVOdCp-177" value="" style="shape=tableRow;horizontal=0;startSize=0;swimlaneHead=0;swimlaneBody=0;fillColor=none;collapsible=0;dropTarget=0;points=[[0,0.5],[1,0.5]];portConstraint=eastwest;top=0;left=0;right=0;bottom=0;dashed=1;" parent="6EP8Lx5cC8tgFNHVOdCp-173" vertex="1"><mxGeometry y="60" width="180" height="30" as="geometry"/></mxCell><mxCell id="6EP8Lx5cC8tgFNHVOdCp-178" value="" style="shape=partialRectangle;connectable=0;fillColor=none;top=0;left=0;bottom=0;right=0;editable=1;overflow=hidden;dashed=1;" parent="6EP8Lx5cC8tgFNHVOdCp-177" vertex="1"><mxGeometry width="30" height="30" as="geometry"><mxRectangle width="30" height="30" as="alternateBounds"/></mxGeometry></mxCell><mxCell id="6EP8Lx5cC8tgFNHVOdCp-179" value="space_id" style="shape=partialRectangle;connectable=0;fillColor=none;top=0;left=0;bottom=0;right=0;align=left;spacingLeft=6;overflow=hidden;dashed=1;" parent="6EP8Lx5cC8tgFNHVOdCp-177" vertex="1"><mxGeometry x="30" width="150" height="30" as="geometry"><mxRectangle width="150" height="30" as="alternateBounds"/></mxGeometry></mxCell><mxCell id="6EP8Lx5cC8tgFNHVOdCp-180" value="" style="shape=tableRow;horizontal=0;startSize=0;swimlaneHead=0;swimlaneBody=0;fillColor=none;collapsible=0;dropTarget=0;points=[[0,0.5],[1,0.5]];portConstraint=eastwest;top=0;left=0;right=0;bottom=0;dashed=1;" parent="6EP8Lx5cC8tgFNHVOdCp-173" vertex="1"><mxGeometry y="90" width="180" height="30" as="geometry"/></mxCell><mxCell id="6EP8Lx5cC8tgFNHVOdCp-181" value="" style="shape=partialRectangle;connectable=0;fillColor=none;top=0;left=0;bottom=0;right=0;editable=1;overflow=hidden;dashed=1;" parent="6EP8Lx5cC8tgFNHVOdCp-180" vertex="1"><mxGeometry width="30" height="30" as="geometry"><mxRectangle width="30" height="30" as="alternateBounds"/></mxGeometry></mxCell><mxCell id="6EP8Lx5cC8tgFNHVOdCp-182" value="space_name" style="shape=partialRectangle;connectable=0;fillColor=none;top=0;left=0;bottom=0;right=0;align=left;spacingLeft=6;overflow=hidden;dashed=1;" parent="6EP8Lx5cC8tgFNHVOdCp-180" vertex="1"><mxGeometry x="30" width="150" height="30" as="geometry"><mxRectangle width="150" height="30" as="alternateBounds"/></mxGeometry></mxCell><mxCell id="6EP8Lx5cC8tgFNHVOdCp-187" style="edgeStyle=orthogonalEdgeStyle;rounded=0;orthogonalLoop=1;jettySize=auto;html=1;" parent="1" source="6EP8Lx5cC8tgFNHVOdCp-128" target="6EP8Lx5cC8tgFNHVOdCp-155" edge="1"><mxGeometry relative="1" as="geometry"/></mxCell><mxCell id="6EP8Lx5cC8tgFNHVOdCp-189" value="&lt;span style=&quot;font-size: 21px;&quot;&gt;空间订阅套餐&lt;/span&gt;" style="text;html=1;strokeColor=none;fillColor=none;align=center;verticalAlign=middle;whiteSpace=wrap;rounded=0;dashed=1;" parent="1" vertex="1"><mxGeometry x="-640" y="-450" width="130" height="60" as="geometry"/></mxCell><mxCell id="6EP8Lx5cC8tgFNHVOdCp-190" value="&lt;span style=&quot;font-size: 21px;&quot;&gt;订单系统&lt;/span&gt;" style="text;html=1;strokeColor=none;fillColor=none;align=center;verticalAlign=middle;whiteSpace=wrap;rounded=0;dashed=1;" parent="1" vertex="1"><mxGeometry x="550" y="-430" width="130" height="60" as="geometry"/></mxCell><mxCell id="6EP8Lx5cC8tgFNHVOdCp-194" style="edgeStyle=orthogonalEdgeStyle;rounded=0;orthogonalLoop=1;jettySize=auto;html=1;fontSize=21;" parent="1" source="6EP8Lx5cC8tgFNHVOdCp-177" target="6EP8Lx5cC8tgFNHVOdCp-125" edge="1"><mxGeometry relative="1" as="geometry"><Array as="points"><mxPoint x="-540" y="-335"/><mxPoint x="-540" y="-155"/></Array></mxGeometry></mxCell><mxCell id="6EP8Lx5cC8tgFNHVOdCp-198" value="&lt;span style=&quot;font-size: 21px&quot;&gt;订阅台账流水&lt;/span&gt;" style="text;html=1;strokeColor=none;fillColor=none;align=center;verticalAlign=middle;whiteSpace=wrap;rounded=0;dashed=1;" parent="1" vertex="1"><mxGeometry x="-630" y="585" width="130" height="60" as="geometry"/></mxCell></root></mxGraphModel></diagram></mxfile>